<mxfile host="app.diagrams.net" modified="2023-12-17T19:12:07.336Z" agent="Mozilla/5.0 (Windows NT 10.0; Win64; x64) AppleWebKit/537.36 (KHTML, like Gecko) Chrome/120.0.0.0 Safari/537.36" etag="TnbxdAdzVyW1QoZNjzZR" version="22.1.11" type="device" pages="4">
  <diagram id="S3Bwy63FPXCQf8nDQeJb" name="General">
    <mxGraphModel dx="2074" dy="1120" grid="1" gridSize="10" guides="1" tooltips="1" connect="1" arrows="1" fold="1" page="1" pageScale="1" pageWidth="827" pageHeight="1169" math="0" shadow="0">
      <root>
        <mxCell id="0" />
        <mxCell id="1" parent="0" />
        <mxCell id="zqeCqyucuBoj6Lh_Elu6-16" value="" style="rounded=1;whiteSpace=wrap;html=1;fillColor=none;" parent="1" vertex="1">
          <mxGeometry x="40" y="120" width="1400" height="480" as="geometry" />
        </mxCell>
        <mxCell id="aNR7hin9dGT8M9iWGUgv-1" value="&lt;font style=&quot;font-size: 40px;&quot;&gt;Bcrypt.vhd&lt;/font&gt;" style="rounded=1;whiteSpace=wrap;html=1;fillColor=none;fontColor=#333333;strokeColor=none;fontStyle=1;fontSize=27;" parent="1" vertex="1">
          <mxGeometry x="80" y="110" width="1320" height="80" as="geometry" />
        </mxCell>
        <mxCell id="aNR7hin9dGT8M9iWGUgv-2" value="&lt;font style=&quot;font-size: 16px;&quot;&gt;&lt;span&gt;bram.vhd&lt;/span&gt;&lt;/font&gt;" style="rounded=1;whiteSpace=wrap;html=1;fontStyle=0;fillColor=#fff2cc;strokeColor=#d6b656;" parent="1" vertex="1">
          <mxGeometry x="80" y="240" width="120" height="80" as="geometry" />
        </mxCell>
        <mxCell id="zqeCqyucuBoj6Lh_Elu6-7" value="" style="edgeStyle=orthogonalEdgeStyle;rounded=0;orthogonalLoop=1;jettySize=auto;html=1;" parent="1" source="aNR7hin9dGT8M9iWGUgv-3" target="aNR7hin9dGT8M9iWGUgv-5" edge="1">
          <mxGeometry relative="1" as="geometry" />
        </mxCell>
        <mxCell id="aNR7hin9dGT8M9iWGUgv-3" value="&lt;font style=&quot;font-size: 16px;&quot;&gt;&lt;span&gt;nxmBitShiftReg.vhd&lt;/span&gt;&lt;/font&gt;" style="rounded=1;whiteSpace=wrap;html=1;fontStyle=0;fillColor=#ffe6cc;strokeColor=#d79b00;" parent="1" vertex="1">
          <mxGeometry x="440" y="240" width="160" height="80" as="geometry" />
        </mxCell>
        <mxCell id="zqeCqyucuBoj6Lh_Elu6-8" value="" style="edgeStyle=orthogonalEdgeStyle;rounded=0;orthogonalLoop=1;jettySize=auto;html=1;" parent="1" source="aNR7hin9dGT8M9iWGUgv-5" target="aNR7hin9dGT8M9iWGUgv-6" edge="1">
          <mxGeometry relative="1" as="geometry" />
        </mxCell>
        <mxCell id="aNR7hin9dGT8M9iWGUgv-5" value="&lt;span&gt;&lt;font style=&quot;font-size: 16px;&quot;&gt;&lt;span&gt;nBitReg.vhd&lt;/span&gt;&lt;/font&gt;&lt;/span&gt;" style="rounded=1;whiteSpace=wrap;html=1;fontStyle=0;fillColor=#f8cecc;strokeColor=#b85450;" parent="1" vertex="1">
          <mxGeometry x="440" y="360" width="160" height="80" as="geometry" />
        </mxCell>
        <mxCell id="aNR7hin9dGT8M9iWGUgv-6" value="&lt;span&gt;&lt;font style=&quot;font-size: 16px;&quot;&gt;&lt;span&gt;dff.vhd&lt;/span&gt;&lt;/font&gt;&lt;/span&gt;" style="rounded=1;whiteSpace=wrap;html=1;fontStyle=0;fillColor=#d5e8d4;strokeColor=#82b366;" parent="1" vertex="1">
          <mxGeometry x="440" y="480" width="160" height="80" as="geometry" />
        </mxCell>
        <mxCell id="aNR7hin9dGT8M9iWGUgv-7" value="&lt;font style=&quot;font-size: 16px;&quot;&gt;&lt;span&gt;nBitCounter.vhd&lt;/span&gt;&lt;/font&gt;" style="rounded=1;whiteSpace=wrap;html=1;fontStyle=0;fillColor=#dae8fc;strokeColor=#6c8ebf;" parent="1" vertex="1">
          <mxGeometry x="240" y="240" width="160" height="80" as="geometry" />
        </mxCell>
        <mxCell id="zqeCqyucuBoj6Lh_Elu6-9" value="" style="edgeStyle=orthogonalEdgeStyle;rounded=0;orthogonalLoop=1;jettySize=auto;html=1;" parent="1" source="aNR7hin9dGT8M9iWGUgv-8" target="aNR7hin9dGT8M9iWGUgv-9" edge="1">
          <mxGeometry relative="1" as="geometry" />
        </mxCell>
        <mxCell id="aNR7hin9dGT8M9iWGUgv-8" value="&lt;span&gt;&lt;font style=&quot;font-size: 16px;&quot;&gt;&lt;span&gt;nBitReg.vhd&lt;/span&gt;&lt;/font&gt;&lt;/span&gt;" style="rounded=1;whiteSpace=wrap;html=1;fontStyle=0;fillColor=#f8cecc;strokeColor=#b85450;" parent="1" vertex="1">
          <mxGeometry x="640" y="240" width="160" height="80" as="geometry" />
        </mxCell>
        <mxCell id="aNR7hin9dGT8M9iWGUgv-9" value="&lt;span&gt;&lt;font style=&quot;font-size: 16px;&quot;&gt;&lt;span&gt;dff.vhd&lt;/span&gt;&lt;/font&gt;&lt;/span&gt;" style="rounded=1;whiteSpace=wrap;html=1;fontStyle=0;fillColor=#d5e8d4;strokeColor=#82b366;" parent="1" vertex="1">
          <mxGeometry x="640" y="360" width="160" height="80" as="geometry" />
        </mxCell>
        <mxCell id="zqeCqyucuBoj6Lh_Elu6-1" value="&lt;span&gt;&lt;font style=&quot;font-size: 16px;&quot;&gt;&lt;span&gt;dff.vhd&lt;/span&gt;&lt;/font&gt;&lt;/span&gt;" style="rounded=1;whiteSpace=wrap;html=1;fontStyle=0;fillColor=#d5e8d4;strokeColor=#82b366;" parent="1" vertex="1">
          <mxGeometry x="840" y="240" width="160" height="80" as="geometry" />
        </mxCell>
        <mxCell id="zqeCqyucuBoj6Lh_Elu6-13" style="edgeStyle=orthogonalEdgeStyle;rounded=0;orthogonalLoop=1;jettySize=auto;html=1;entryX=0.5;entryY=0;entryDx=0;entryDy=0;" parent="1" source="zqeCqyucuBoj6Lh_Elu6-2" target="zqeCqyucuBoj6Lh_Elu6-3" edge="1">
          <mxGeometry relative="1" as="geometry" />
        </mxCell>
        <mxCell id="zqeCqyucuBoj6Lh_Elu6-2" value="&lt;b&gt;&lt;font style=&quot;font-size: 16px;&quot;&gt;&lt;span&gt;blowfish_encryption.vhd&lt;/span&gt;&lt;/font&gt;&lt;/b&gt;" style="rounded=1;whiteSpace=wrap;html=1;fontStyle=0;fillColor=#e1d5e7;strokeColor=#9673a6;" parent="1" vertex="1">
          <mxGeometry x="1040" y="240" width="360" height="80" as="geometry" />
        </mxCell>
        <mxCell id="zqeCqyucuBoj6Lh_Elu6-11" value="" style="edgeStyle=orthogonalEdgeStyle;rounded=0;orthogonalLoop=1;jettySize=auto;html=1;" parent="1" source="zqeCqyucuBoj6Lh_Elu6-3" target="zqeCqyucuBoj6Lh_Elu6-4" edge="1">
          <mxGeometry relative="1" as="geometry" />
        </mxCell>
        <mxCell id="zqeCqyucuBoj6Lh_Elu6-3" value="&lt;span&gt;&lt;font style=&quot;font-size: 16px;&quot;&gt;&lt;span&gt;nBitReg.vhd&lt;/span&gt;&lt;/font&gt;&lt;/span&gt;" style="rounded=1;whiteSpace=wrap;html=1;fontStyle=0;fillColor=#f8cecc;strokeColor=#b85450;" parent="1" vertex="1">
          <mxGeometry x="1040" y="360" width="160" height="80" as="geometry" />
        </mxCell>
        <mxCell id="zqeCqyucuBoj6Lh_Elu6-4" value="&lt;span&gt;&lt;font style=&quot;font-size: 16px;&quot;&gt;&lt;span&gt;dff.vhd&lt;/span&gt;&lt;/font&gt;&lt;/span&gt;" style="rounded=1;whiteSpace=wrap;html=1;fontStyle=0;fillColor=#d5e8d4;strokeColor=#82b366;" parent="1" vertex="1">
          <mxGeometry x="1040" y="480" width="160" height="80" as="geometry" />
        </mxCell>
        <mxCell id="zqeCqyucuBoj6Lh_Elu6-5" value="&lt;font style=&quot;font-size: 16px;&quot;&gt;&lt;span&gt;nBitCounter.vhd&lt;/span&gt;&lt;/font&gt;" style="rounded=1;whiteSpace=wrap;html=1;fontStyle=0;fillColor=#dae8fc;strokeColor=#6c8ebf;" parent="1" vertex="1">
          <mxGeometry x="1240" y="360" width="160" height="80" as="geometry" />
        </mxCell>
        <mxCell id="zqeCqyucuBoj6Lh_Elu6-15" style="edgeStyle=orthogonalEdgeStyle;rounded=0;orthogonalLoop=1;jettySize=auto;html=1;entryX=0.5;entryY=0;entryDx=0;entryDy=0;" parent="1" target="zqeCqyucuBoj6Lh_Elu6-5" edge="1">
          <mxGeometry relative="1" as="geometry">
            <mxPoint x="1220" y="340" as="sourcePoint" />
            <mxPoint x="1310" y="350" as="targetPoint" />
            <Array as="points">
              <mxPoint x="1320" y="340" />
            </Array>
          </mxGeometry>
        </mxCell>
      </root>
    </mxGraphModel>
  </diagram>
  <diagram id="LzbmDW8bKWerdm9Vnc9x" name="bcrypt tb">
    <mxGraphModel dx="2924" dy="1120" grid="1" gridSize="10" guides="1" tooltips="1" connect="1" arrows="1" fold="1" page="1" pageScale="1" pageWidth="850" pageHeight="1100" math="0" shadow="0">
      <root>
        <mxCell id="0" />
        <mxCell id="1" parent="0" />
        <mxCell id="3q3yAW4LGMC-pF_v1pLA-24" value="" style="shape=flexArrow;endArrow=classic;html=1;rounded=0;fillColor=#e1d5e7;strokeColor=none;strokeWidth=13;" parent="1" edge="1">
          <mxGeometry width="50" height="50" relative="1" as="geometry">
            <mxPoint x="550" y="600" as="sourcePoint" />
            <mxPoint x="760" y="600" as="targetPoint" />
          </mxGeometry>
        </mxCell>
        <mxCell id="3q3yAW4LGMC-pF_v1pLA-26" value="" style="shape=flexArrow;endArrow=classic;html=1;rounded=0;fillColor=#e1d5e7;strokeColor=none;strokeWidth=13;" parent="1" edge="1">
          <mxGeometry width="50" height="50" relative="1" as="geometry">
            <mxPoint x="550" y="690" as="sourcePoint" />
            <mxPoint x="760" y="690" as="targetPoint" />
          </mxGeometry>
        </mxCell>
        <mxCell id="3q3yAW4LGMC-pF_v1pLA-19" value="" style="shape=flexArrow;endArrow=classic;html=1;rounded=0;fillColor=#e1d5e7;strokeColor=none;strokeWidth=13;" parent="1" edge="1">
          <mxGeometry width="50" height="50" relative="1" as="geometry">
            <mxPoint x="550" y="520" as="sourcePoint" />
            <mxPoint x="760" y="520" as="targetPoint" />
          </mxGeometry>
        </mxCell>
        <mxCell id="nbaKIWSsGJJZll5_DG_Z-2" value="Sbox BRAM" style="rounded=1;whiteSpace=wrap;html=1;fillColor=#d5e8d4;strokeColor=#82b366;" parent="1" vertex="1">
          <mxGeometry x="120" y="360" width="120" height="80" as="geometry" />
        </mxCell>
        <UserObject label="&lt;div&gt;Bcrypt Core&lt;/div&gt;" link="data:page/id,YmXWAisofS-MouCbzUtv" id="nbaKIWSsGJJZll5_DG_Z-1">
          <mxCell style="rounded=1;whiteSpace=wrap;html=1;fillColor=#dae8fc;strokeColor=#6c8ebf;" parent="1" vertex="1">
            <mxGeometry x="360" y="360" width="200" height="440" as="geometry" />
          </mxCell>
        </UserObject>
        <mxCell id="3q3yAW4LGMC-pF_v1pLA-1" value="Init Subkey" style="rounded=1;whiteSpace=wrap;html=1;fillColor=#d5e8d4;strokeColor=#82b366;" parent="1" vertex="1">
          <mxGeometry x="120" y="480" width="120" height="80" as="geometry" />
        </mxCell>
        <mxCell id="3q3yAW4LGMC-pF_v1pLA-2" value="Key (password)" style="rounded=1;whiteSpace=wrap;html=1;fillColor=#d5e8d4;strokeColor=#82b366;" parent="1" vertex="1">
          <mxGeometry x="120" y="600" width="120" height="80" as="geometry" />
        </mxCell>
        <mxCell id="3q3yAW4LGMC-pF_v1pLA-3" value="Salt" style="rounded=1;whiteSpace=wrap;html=1;fillColor=#d5e8d4;strokeColor=#82b366;" parent="1" vertex="1">
          <mxGeometry x="120" y="720" width="120" height="80" as="geometry" />
        </mxCell>
        <mxCell id="3q3yAW4LGMC-pF_v1pLA-7" value="" style="shape=flexArrow;endArrow=classic;html=1;rounded=0;exitX=1;exitY=0.5;exitDx=0;exitDy=0;entryX=0;entryY=0.091;entryDx=0;entryDy=0;entryPerimeter=0;fillColor=#d5e8d4;strokeColor=none;" parent="1" source="nbaKIWSsGJJZll5_DG_Z-2" target="nbaKIWSsGJJZll5_DG_Z-1" edge="1">
          <mxGeometry width="50" height="50" relative="1" as="geometry">
            <mxPoint x="320" y="540" as="sourcePoint" />
            <mxPoint x="370" y="490" as="targetPoint" />
          </mxGeometry>
        </mxCell>
        <mxCell id="3q3yAW4LGMC-pF_v1pLA-8" value="" style="shape=flexArrow;endArrow=classic;html=1;rounded=0;exitX=1;exitY=0.5;exitDx=0;exitDy=0;entryX=0;entryY=0.091;entryDx=0;entryDy=0;entryPerimeter=0;fillColor=#d5e8d4;strokeColor=none;" parent="1" edge="1">
          <mxGeometry width="50" height="50" relative="1" as="geometry">
            <mxPoint x="240" y="519.5" as="sourcePoint" />
            <mxPoint x="360" y="519.5" as="targetPoint" />
          </mxGeometry>
        </mxCell>
        <mxCell id="3q3yAW4LGMC-pF_v1pLA-9" value="" style="shape=flexArrow;endArrow=classic;html=1;rounded=0;exitX=1;exitY=0.5;exitDx=0;exitDy=0;entryX=0;entryY=0.091;entryDx=0;entryDy=0;entryPerimeter=0;fillColor=#d5e8d4;strokeColor=none;" parent="1" edge="1">
          <mxGeometry width="50" height="50" relative="1" as="geometry">
            <mxPoint x="240" y="639.5" as="sourcePoint" />
            <mxPoint x="360" y="639.5" as="targetPoint" />
          </mxGeometry>
        </mxCell>
        <mxCell id="3q3yAW4LGMC-pF_v1pLA-10" value="" style="shape=flexArrow;endArrow=classic;html=1;rounded=0;exitX=1;exitY=0.5;exitDx=0;exitDy=0;entryX=0;entryY=0.091;entryDx=0;entryDy=0;entryPerimeter=0;fillColor=#d5e8d4;strokeColor=none;" parent="1" edge="1">
          <mxGeometry width="50" height="50" relative="1" as="geometry">
            <mxPoint x="240" y="759.5" as="sourcePoint" />
            <mxPoint x="360" y="759.5" as="targetPoint" />
          </mxGeometry>
        </mxCell>
        <mxCell id="3q3yAW4LGMC-pF_v1pLA-11" value="" style="shape=flexArrow;endArrow=classic;html=1;rounded=1;entryX=0;entryY=0.5;entryDx=0;entryDy=0;fillColor=#ffe6cc;strokeColor=none;strokeWidth=4;" parent="1" target="nbaKIWSsGJJZll5_DG_Z-2" edge="1">
          <mxGeometry width="50" height="50" relative="1" as="geometry">
            <mxPoint x="560" y="400" as="sourcePoint" />
            <mxPoint x="110" y="410" as="targetPoint" />
            <Array as="points">
              <mxPoint x="600" y="400" />
              <mxPoint x="600" y="320" />
              <mxPoint x="40" y="320" />
              <mxPoint x="40" y="360" />
              <mxPoint x="40" y="400" />
            </Array>
          </mxGeometry>
        </mxCell>
        <mxCell id="3q3yAW4LGMC-pF_v1pLA-13" value="Init memory" style="rounded=0;whiteSpace=wrap;html=1;fillColor=none;strokeColor=none;fontSize=15;" parent="1" vertex="1">
          <mxGeometry x="270" y="290" width="120" height="60" as="geometry" />
        </mxCell>
        <mxCell id="3q3yAW4LGMC-pF_v1pLA-14" value="" style="shape=flexArrow;endArrow=classic;html=1;rounded=1;entryX=0;entryY=0.5;entryDx=0;entryDy=0;fillColor=#ffe6cc;strokeColor=none;strokeWidth=4;" parent="1" target="3q3yAW4LGMC-pF_v1pLA-1" edge="1">
          <mxGeometry width="50" height="50" relative="1" as="geometry">
            <mxPoint x="40" y="400" as="sourcePoint" />
            <mxPoint x="100" y="520" as="targetPoint" />
            <Array as="points">
              <mxPoint x="40" y="520" />
            </Array>
          </mxGeometry>
        </mxCell>
        <mxCell id="3q3yAW4LGMC-pF_v1pLA-15" value="" style="shape=flexArrow;endArrow=classic;html=1;rounded=1;entryX=0;entryY=0.5;entryDx=0;entryDy=0;fillColor=#ffe6cc;strokeColor=none;strokeWidth=4;exitX=1.01;exitY=0.173;exitDx=0;exitDy=0;exitPerimeter=0;" parent="1" source="nbaKIWSsGJJZll5_DG_Z-1" target="3q3yAW4LGMC-pF_v1pLA-2" edge="1">
          <mxGeometry width="50" height="50" relative="1" as="geometry">
            <mxPoint x="560" y="520" as="sourcePoint" />
            <mxPoint x="120" y="520" as="targetPoint" />
            <Array as="points">
              <mxPoint x="600" y="436" />
              <mxPoint x="640" y="436" />
              <mxPoint x="640" y="360" />
              <mxPoint x="640" y="280" />
              <mxPoint x="320" y="280" />
              <mxPoint y="280" />
              <mxPoint y="360" />
              <mxPoint y="520" />
              <mxPoint y="640" />
            </Array>
          </mxGeometry>
        </mxCell>
        <mxCell id="3q3yAW4LGMC-pF_v1pLA-16" value="key_addr" style="rounded=0;whiteSpace=wrap;html=1;fillColor=none;strokeColor=none;fontSize=15;" parent="1" vertex="1">
          <mxGeometry x="270" y="250" width="120" height="60" as="geometry" />
        </mxCell>
        <mxCell id="3q3yAW4LGMC-pF_v1pLA-21" value="key_done" style="rounded=0;whiteSpace=wrap;html=1;fillColor=none;strokeColor=none;fontSize=15;" parent="1" vertex="1">
          <mxGeometry x="600" y="490" width="90" height="60" as="geometry" />
        </mxCell>
        <mxCell id="3q3yAW4LGMC-pF_v1pLA-25" value="dout_valid" style="rounded=0;whiteSpace=wrap;html=1;fillColor=none;strokeColor=none;fontSize=15;" parent="1" vertex="1">
          <mxGeometry x="600" y="570" width="90" height="60" as="geometry" />
        </mxCell>
        <mxCell id="3q3yAW4LGMC-pF_v1pLA-27" value="dout" style="rounded=0;whiteSpace=wrap;html=1;fillColor=none;strokeColor=none;fontSize=15;" parent="1" vertex="1">
          <mxGeometry x="600" y="660" width="90" height="60" as="geometry" />
        </mxCell>
        <mxCell id="-8Gw28viJa6uL5eRCZNl-1" value="OUTPUT CHECK" style="rounded=1;whiteSpace=wrap;html=1;fillColor=#f8cecc;strokeColor=#b85450;" parent="1" vertex="1">
          <mxGeometry x="760" y="480" width="190" height="240" as="geometry" />
        </mxCell>
      </root>
    </mxGraphModel>
  </diagram>
  <diagram name="bcrypt core inst" id="YmXWAisofS-MouCbzUtv">
    <mxGraphModel dx="2074" dy="1120" grid="1" gridSize="10" guides="1" tooltips="1" connect="1" arrows="1" fold="1" page="1" pageScale="1" pageWidth="827" pageHeight="1169" math="0" shadow="0">
      <root>
        <mxCell id="0" />
        <mxCell id="1" parent="0" />
        <mxCell id="fLC40trGX75_qP32-5L6-43" value="" style="rounded=1;whiteSpace=wrap;html=1;fillColor=#e1d5e7;strokeColor=#9673a6;" parent="1" vertex="1">
          <mxGeometry x="180" y="200" width="1360" height="600" as="geometry" />
        </mxCell>
        <mxCell id="7EGL9XoVboEZDOE69qso-16" value="" style="rounded=1;whiteSpace=wrap;html=1;fillColor=#d5e8d4;strokeColor=#82b366;" parent="1" vertex="1">
          <mxGeometry x="220" y="270" width="400" height="280" as="geometry" />
        </mxCell>
        <mxCell id="7EGL9XoVboEZDOE69qso-3" value="&lt;div style=&quot;font-size: 16px;&quot;&gt;Sbox 0 &amp;amp; Sbox 1&lt;/div&gt;&lt;div style=&quot;font-size: 16px;&quot;&gt;&lt;br&gt;&lt;/div&gt;&lt;div&gt;DATA_WIDTH : 32 bits&lt;br&gt;&lt;/div&gt;&lt;div&gt;ADD_WIDTH : 9 bits&lt;br&gt;&lt;/div&gt;" style="rounded=1;whiteSpace=wrap;html=1;fillColor=#f5f5f5;fontColor=#333333;strokeColor=#666666;" parent="1" vertex="1">
          <mxGeometry x="244" y="320" width="160" height="90" as="geometry" />
        </mxCell>
        <mxCell id="7EGL9XoVboEZDOE69qso-11" value="&lt;div style=&quot;font-size: 16px;&quot;&gt;Sbox 2 &amp;amp; Sbox 3&lt;/div&gt;&lt;div style=&quot;font-size: 16px;&quot;&gt;&lt;br&gt;&lt;/div&gt;&lt;div&gt;DATA_WIDTH : 32 bits&lt;br&gt;&lt;/div&gt;&lt;div&gt;ADD_WIDTH : 9 bits&lt;br&gt;&lt;/div&gt;" style="rounded=1;whiteSpace=wrap;html=1;fillColor=#f5f5f5;fontColor=#333333;strokeColor=#666666;" parent="1" vertex="1">
          <mxGeometry x="434" y="320" width="160" height="90" as="geometry" />
        </mxCell>
        <mxCell id="7EGL9XoVboEZDOE69qso-13" value="&lt;div style=&quot;font-size: 16px;&quot;&gt;Subkeys&lt;/div&gt;&lt;div style=&quot;font-size: 16px;&quot;&gt;&lt;br&gt;&lt;/div&gt;&lt;div&gt;DATA_WIDTH : 32 bits&lt;br&gt;&lt;/div&gt;&lt;div&gt;ADD_WIDTH : 9 bits&lt;br&gt;&lt;/div&gt;" style="rounded=1;whiteSpace=wrap;html=1;fillColor=#f5f5f5;fontColor=#333333;strokeColor=#666666;" parent="1" vertex="1">
          <mxGeometry x="244" y="440" width="160" height="90" as="geometry" />
        </mxCell>
        <mxCell id="7EGL9XoVboEZDOE69qso-17" value="BLOCK RAM" style="rounded=0;whiteSpace=wrap;html=1;fillColor=none;strokeColor=none;fontSize=16;fontStyle=1" parent="1" vertex="1">
          <mxGeometry x="360" y="270" width="120" height="60" as="geometry" />
        </mxCell>
        <mxCell id="7EGL9XoVboEZDOE69qso-18" value="bram.vhd" style="rounded=0;whiteSpace=wrap;html=1;fillColor=none;strokeColor=none;fontStyle=2" parent="1" vertex="1">
          <mxGeometry x="530" y="510" width="90" height="40" as="geometry" />
        </mxCell>
        <mxCell id="fLC40trGX75_qP32-5L6-1" value="" style="rounded=1;whiteSpace=wrap;html=1;fillColor=#dae8fc;strokeColor=#6c8ebf;" parent="1" vertex="1">
          <mxGeometry x="220" y="570" width="400" height="190" as="geometry" />
        </mxCell>
        <mxCell id="fLC40trGX75_qP32-5L6-3" value="&lt;div style=&quot;font-size: 16px;&quot;&gt;Active Sbox&lt;/div&gt;&lt;div style=&quot;font-size: 16px;&quot;&gt;&lt;br&gt;&lt;/div&gt;&lt;div&gt;N : 4 registers&lt;br&gt;&lt;/div&gt;&lt;div&gt;M : 1 bit&lt;br&gt;&lt;/div&gt;" style="rounded=1;whiteSpace=wrap;html=1;fillColor=#f5f5f5;fontColor=#333333;strokeColor=#666666;" parent="1" vertex="1">
          <mxGeometry x="244" y="630" width="160" height="90" as="geometry" />
        </mxCell>
        <mxCell id="fLC40trGX75_qP32-5L6-5" value="SHIFT REGISTER (with Rotation)" style="rounded=0;whiteSpace=wrap;html=1;fillColor=none;strokeColor=none;fontSize=16;fontStyle=1" parent="1" vertex="1">
          <mxGeometry x="220" y="570" width="400" height="60" as="geometry" />
        </mxCell>
        <mxCell id="fLC40trGX75_qP32-5L6-6" value="nxmBitShiftReg.vhd" style="rounded=0;whiteSpace=wrap;html=1;fillColor=none;strokeColor=none;fontStyle=2" parent="1" vertex="1">
          <mxGeometry x="490" y="720" width="130" height="40" as="geometry" />
        </mxCell>
        <mxCell id="fLC40trGX75_qP32-5L6-7" value="" style="rounded=1;whiteSpace=wrap;html=1;fillColor=#ffe6cc;strokeColor=#d79b00;" parent="1" vertex="1">
          <mxGeometry x="660" y="270" width="400" height="280" as="geometry" />
        </mxCell>
        <mxCell id="fLC40trGX75_qP32-5L6-8" value="&lt;div style=&quot;font-size: 16px;&quot;&gt;Cost counter&lt;/div&gt;&lt;div style=&quot;font-size: 16px;&quot;&gt;&lt;br&gt;&lt;/div&gt;&lt;div&gt;ASYNC : False&lt;br&gt;&lt;/div&gt;&lt;div&gt;BIT_WIDTH : 2 bits&lt;br&gt;&lt;/div&gt;" style="rounded=1;whiteSpace=wrap;html=1;fillColor=#f5f5f5;fontColor=#333333;strokeColor=#666666;" parent="1" vertex="1">
          <mxGeometry x="684" y="320" width="160" height="90" as="geometry" />
        </mxCell>
        <mxCell id="fLC40trGX75_qP32-5L6-11" value="COUNTERS" style="rounded=0;whiteSpace=wrap;html=1;fillColor=none;strokeColor=none;fontSize=16;fontStyle=1" parent="1" vertex="1">
          <mxGeometry x="660" y="270" width="400" height="60" as="geometry" />
        </mxCell>
        <mxCell id="fLC40trGX75_qP32-5L6-12" value="nBitCounter.vhd" style="rounded=0;whiteSpace=wrap;html=1;fillColor=none;strokeColor=none;fontStyle=2" parent="1" vertex="1">
          <mxGeometry x="940" y="510" width="120" height="40" as="geometry" />
        </mxCell>
        <mxCell id="fLC40trGX75_qP32-5L6-13" value="&lt;div style=&quot;font-size: 16px;&quot;&gt;Loop counter(init &amp;amp; ECB)&lt;br&gt;&lt;/div&gt;&lt;div&gt;ASYNC : False&lt;br&gt;&lt;/div&gt;&lt;div&gt;BIT_WIDTH : 9 bits&lt;br&gt;&lt;/div&gt;" style="rounded=1;whiteSpace=wrap;html=1;fillColor=#f5f5f5;fontColor=#333333;strokeColor=#666666;" parent="1" vertex="1">
          <mxGeometry x="870" y="320" width="160" height="90" as="geometry" />
        </mxCell>
        <mxCell id="fLC40trGX75_qP32-5L6-15" value="&lt;div style=&quot;font-size: 16px;&quot;&gt;Loop end counter(+1)&lt;/div&gt;&lt;div style=&quot;font-size: 16px;&quot;&gt;&lt;br&gt;&lt;/div&gt;&lt;div&gt;ASYNC : False&lt;br&gt;&lt;/div&gt;&lt;div&gt;BIT_WIDTH : 10 bits&lt;br&gt;&lt;/div&gt;" style="rounded=1;whiteSpace=wrap;html=1;fillColor=#f5f5f5;fontColor=#333333;strokeColor=#666666;" parent="1" vertex="1">
          <mxGeometry x="684" y="430" width="160" height="90" as="geometry" />
        </mxCell>
        <mxCell id="fLC40trGX75_qP32-5L6-30" value="" style="rounded=1;whiteSpace=wrap;html=1;fillColor=#fff2cc;strokeColor=#d6b656;" parent="1" vertex="1">
          <mxGeometry x="660" y="570" width="400" height="190" as="geometry" />
        </mxCell>
        <mxCell id="fLC40trGX75_qP32-5L6-31" value="&lt;div style=&quot;font-size: 16px;&quot;&gt;First expand key flag&lt;br&gt;&lt;/div&gt;&lt;div style=&quot;font-size: 16px;&quot;&gt;&lt;br&gt;&lt;/div&gt;&lt;div&gt;Async : False&lt;br&gt;&lt;/div&gt;&lt;div&gt;&lt;br&gt;&lt;/div&gt;" style="rounded=1;whiteSpace=wrap;html=1;fillColor=#f5f5f5;fontColor=#333333;strokeColor=#666666;" parent="1" vertex="1">
          <mxGeometry x="684" y="630" width="160" height="90" as="geometry" />
        </mxCell>
        <mxCell id="fLC40trGX75_qP32-5L6-32" value="D FLIP FLOP" style="rounded=0;whiteSpace=wrap;html=1;fillColor=none;strokeColor=none;fontSize=16;fontStyle=1" parent="1" vertex="1">
          <mxGeometry x="660" y="570" width="400" height="60" as="geometry" />
        </mxCell>
        <mxCell id="fLC40trGX75_qP32-5L6-33" value="dff.vhd" style="rounded=0;whiteSpace=wrap;html=1;fillColor=none;strokeColor=none;fontStyle=2" parent="1" vertex="1">
          <mxGeometry x="980" y="720" width="80" height="40" as="geometry" />
        </mxCell>
        <mxCell id="fLC40trGX75_qP32-5L6-34" value="&lt;div style=&quot;font-size: 16px;&quot;&gt;Use Salt Dword Low Flag&lt;br&gt;&lt;/div&gt;&lt;div&gt;Async : False&lt;br&gt;&lt;/div&gt;&lt;div&gt;&lt;br&gt;&lt;/div&gt;" style="rounded=1;whiteSpace=wrap;html=1;fillColor=#f5f5f5;fontColor=#333333;strokeColor=#666666;" parent="1" vertex="1">
          <mxGeometry x="870" y="630" width="160" height="90" as="geometry" />
        </mxCell>
        <mxCell id="fLC40trGX75_qP32-5L6-35" value="" style="rounded=1;whiteSpace=wrap;html=1;fillColor=#f8cecc;strokeColor=#b85450;" parent="1" vertex="1">
          <mxGeometry x="1100" y="270" width="400" height="280" as="geometry" />
        </mxCell>
        <mxCell id="fLC40trGX75_qP32-5L6-36" value="&lt;div style=&quot;font-size: 16px;&quot;&gt;Loop Counter Delay&lt;br&gt;&lt;/div&gt;&lt;div style=&quot;font-size: 16px;&quot;&gt;&lt;br&gt;&lt;/div&gt;&lt;div&gt;ASYNC : False&lt;br&gt;&lt;/div&gt;&lt;div&gt;BIT_WIDTH : 9 bits&lt;br&gt;&lt;/div&gt;" style="rounded=1;whiteSpace=wrap;html=1;fillColor=#f5f5f5;fontColor=#333333;strokeColor=#666666;" parent="1" vertex="1">
          <mxGeometry x="1124" y="320" width="160" height="90" as="geometry" />
        </mxCell>
        <mxCell id="fLC40trGX75_qP32-5L6-37" value="REGISTER" style="rounded=0;whiteSpace=wrap;html=1;fillColor=none;strokeColor=none;fontSize=16;fontStyle=1" parent="1" vertex="1">
          <mxGeometry x="1100" y="270" width="400" height="60" as="geometry" />
        </mxCell>
        <mxCell id="fLC40trGX75_qP32-5L6-38" value="nBitReg.vhd" style="rounded=0;whiteSpace=wrap;html=1;fillColor=none;strokeColor=none;fontStyle=2" parent="1" vertex="1">
          <mxGeometry x="1400" y="510" width="100" height="40" as="geometry" />
        </mxCell>
        <mxCell id="fLC40trGX75_qP32-5L6-39" value="&lt;div style=&quot;font-size: 16px;&quot;&gt;Blowfish Out Delay&lt;/div&gt;&lt;div style=&quot;font-size: 16px;&quot;&gt;&lt;br&gt;&lt;/div&gt;&lt;div&gt;ASYNC : False&lt;br&gt;&lt;/div&gt;&lt;div&gt;BIT_WIDTH : 64 bits&lt;br&gt;&lt;/div&gt;" style="rounded=1;whiteSpace=wrap;html=1;fillColor=#f5f5f5;fontColor=#333333;strokeColor=#666666;" parent="1" vertex="1">
          <mxGeometry x="1310" y="320" width="160" height="90" as="geometry" />
        </mxCell>
        <mxCell id="fLC40trGX75_qP32-5L6-41" value="&lt;div style=&quot;font-size: 16px;&quot;&gt;Blowfish Out Delay&lt;/div&gt;&lt;div style=&quot;font-size: 16px;&quot;&gt;Twice&lt;br&gt;&lt;/div&gt;&lt;div&gt;ASYNC : False&lt;br&gt;&lt;/div&gt;&lt;div&gt;BIT_WIDTH : 64 bits&lt;br&gt;&lt;/div&gt;" style="rounded=1;whiteSpace=wrap;html=1;fillColor=#f5f5f5;fontColor=#333333;strokeColor=#666666;" parent="1" vertex="1">
          <mxGeometry x="1124" y="430" width="160" height="90" as="geometry" />
        </mxCell>
        <mxCell id="fLC40trGX75_qP32-5L6-44" value="BCRYPT CORE" style="rounded=1;whiteSpace=wrap;html=1;fillColor=none;strokeColor=none;fontStyle=1;fontSize=22;" parent="1" vertex="1">
          <mxGeometry x="180" y="200" width="1360" height="60" as="geometry" />
        </mxCell>
      </root>
    </mxGraphModel>
  </diagram>
  <diagram name="bcrypt core" id="WNMKQ7a9CtBa3cbVW2UG">
    <mxGraphModel dx="4284" dy="4205" grid="1" gridSize="10" guides="1" tooltips="1" connect="1" arrows="1" fold="1" page="1" pageScale="1" pageWidth="827" pageHeight="1169" math="0" shadow="0">
      <root>
        <mxCell id="ROXL5avVqIjRntkrCK3H-0" />
        <mxCell id="ROXL5avVqIjRntkrCK3H-1" parent="ROXL5avVqIjRntkrCK3H-0" />
        <mxCell id="yf8Vn-Xlz2NRk6f_VjwH-64" value="" style="rounded=0;whiteSpace=wrap;html=1;fillColor=#e1d5e7;strokeColor=#9673a6;" vertex="1" parent="ROXL5avVqIjRntkrCK3H-1">
          <mxGeometry x="40" y="-1196.25" width="2200" height="1710" as="geometry" />
        </mxCell>
        <mxCell id="hIbvnzIKUDem9TLpaMSF-0" value="&lt;b&gt;BRAM&lt;br style=&quot;font-size: 16px;&quot;&gt;&lt;/b&gt;sbox01&lt;br style=&quot;font-size: 16px;&quot;&gt;&lt;i&gt;16kb&lt;/i&gt;" style="rounded=0;whiteSpace=wrap;html=1;fontSize=16;fillColor=#d5e8d4;strokeColor=#82b366;" vertex="1" parent="ROXL5avVqIjRntkrCK3H-1">
          <mxGeometry x="1040" y="-360" width="160" height="80" as="geometry" />
        </mxCell>
        <mxCell id="XZO48qd468Gqja3xGvcr-0" value="&lt;b&gt;BRAM&lt;br style=&quot;font-size: 16px;&quot;&gt;&lt;/b&gt;sbox23&lt;br style=&quot;font-size: 16px;&quot;&gt;&lt;i&gt;16kb&lt;/i&gt;" style="rounded=0;whiteSpace=wrap;html=1;fontSize=16;fillColor=#d5e8d4;strokeColor=#82b366;" vertex="1" parent="ROXL5avVqIjRntkrCK3H-1">
          <mxGeometry x="1040" y="-268.75" width="160" height="80" as="geometry" />
        </mxCell>
        <mxCell id="XZO48qd468Gqja3xGvcr-1" value="&lt;b&gt;BRAM&lt;br style=&quot;font-size: 16px;&quot;&gt;&lt;/b&gt;subkey_memory&lt;br style=&quot;font-size: 16px;&quot;&gt;&lt;i&gt;16kb&lt;/i&gt;" style="rounded=0;whiteSpace=wrap;html=1;fontSize=16;fillColor=#d5e8d4;strokeColor=#82b366;" vertex="1" parent="ROXL5avVqIjRntkrCK3H-1">
          <mxGeometry x="1040" y="-177.5" width="160" height="80" as="geometry" />
        </mxCell>
        <mxCell id="UsUdv7iphlGZzBfHlEy7-0" value="" style="edgeStyle=none;orthogonalLoop=1;jettySize=auto;html=1;rounded=0;" edge="1" parent="ROXL5avVqIjRntkrCK3H-1">
          <mxGeometry width="100" relative="1" as="geometry">
            <mxPoint x="-20" y="-680" as="sourcePoint" />
            <mxPoint x="40" y="-680" as="targetPoint" />
            <Array as="points" />
          </mxGeometry>
        </mxCell>
        <mxCell id="UsUdv7iphlGZzBfHlEy7-2" value="clk" style="rounded=0;whiteSpace=wrap;html=1;fillColor=none;strokeColor=none;fontSize=13;" vertex="1" parent="ROXL5avVqIjRntkrCK3H-1">
          <mxGeometry x="-20" y="-710" width="60" height="30" as="geometry" />
        </mxCell>
        <mxCell id="UsUdv7iphlGZzBfHlEy7-5" value="" style="edgeStyle=none;orthogonalLoop=1;jettySize=auto;html=1;rounded=0;" edge="1" parent="ROXL5avVqIjRntkrCK3H-1">
          <mxGeometry width="100" relative="1" as="geometry">
            <mxPoint x="-20" y="-640" as="sourcePoint" />
            <mxPoint x="40" y="-640" as="targetPoint" />
            <Array as="points" />
          </mxGeometry>
        </mxCell>
        <mxCell id="UsUdv7iphlGZzBfHlEy7-6" value="rst" style="rounded=0;whiteSpace=wrap;html=1;fillColor=none;strokeColor=none;fontSize=13;" vertex="1" parent="ROXL5avVqIjRntkrCK3H-1">
          <mxGeometry x="-20" y="-670" width="60" height="30" as="geometry" />
        </mxCell>
        <mxCell id="UsUdv7iphlGZzBfHlEy7-9" value="" style="endArrow=classic;html=1;rounded=0;fillColor=none;strokeColor=default;strokeWidth=2;" edge="1" parent="ROXL5avVqIjRntkrCK3H-1">
          <mxGeometry width="50" height="50" relative="1" as="geometry">
            <mxPoint x="-20" y="-600" as="sourcePoint" />
            <mxPoint x="40" y="-600" as="targetPoint" />
          </mxGeometry>
        </mxCell>
        <mxCell id="UsUdv7iphlGZzBfHlEy7-10" value="salt(127:0)" style="rounded=0;whiteSpace=wrap;html=1;fillColor=none;strokeColor=none;fontSize=13;" vertex="1" parent="ROXL5avVqIjRntkrCK3H-1">
          <mxGeometry x="-40" y="-630" width="80" height="30" as="geometry" />
        </mxCell>
        <mxCell id="UsUdv7iphlGZzBfHlEy7-11" value="" style="edgeStyle=none;orthogonalLoop=1;jettySize=auto;html=1;rounded=0;" edge="1" parent="ROXL5avVqIjRntkrCK3H-1">
          <mxGeometry width="100" relative="1" as="geometry">
            <mxPoint x="-20" y="-560" as="sourcePoint" />
            <mxPoint x="40" y="-560" as="targetPoint" />
            <Array as="points" />
          </mxGeometry>
        </mxCell>
        <mxCell id="UsUdv7iphlGZzBfHlEy7-12" value="start_expand_key" style="rounded=0;whiteSpace=wrap;html=1;fillColor=none;strokeColor=none;fontSize=13;" vertex="1" parent="ROXL5avVqIjRntkrCK3H-1">
          <mxGeometry x="-80" y="-590" width="120" height="30" as="geometry" />
        </mxCell>
        <mxCell id="UsUdv7iphlGZzBfHlEy7-14" value="" style="edgeStyle=none;orthogonalLoop=1;jettySize=auto;html=1;rounded=0;" edge="1" parent="ROXL5avVqIjRntkrCK3H-1">
          <mxGeometry width="100" relative="1" as="geometry">
            <mxPoint x="-20" y="-520" as="sourcePoint" />
            <mxPoint x="40" y="-520" as="targetPoint" />
            <Array as="points" />
          </mxGeometry>
        </mxCell>
        <mxCell id="UsUdv7iphlGZzBfHlEy7-15" value="pipeline_full" style="rounded=0;whiteSpace=wrap;html=1;fillColor=none;strokeColor=none;fontSize=13;" vertex="1" parent="ROXL5avVqIjRntkrCK3H-1">
          <mxGeometry x="-40" y="-550" width="80" height="30" as="geometry" />
        </mxCell>
        <mxCell id="UsUdv7iphlGZzBfHlEy7-17" value="" style="endArrow=classic;html=1;rounded=0;fillColor=none;strokeColor=default;strokeWidth=2;" edge="1" parent="ROXL5avVqIjRntkrCK3H-1">
          <mxGeometry width="50" height="50" relative="1" as="geometry">
            <mxPoint x="-20" y="-480.8299999999999" as="sourcePoint" />
            <mxPoint x="40" y="-480.8299999999999" as="targetPoint" />
          </mxGeometry>
        </mxCell>
        <mxCell id="UsUdv7iphlGZzBfHlEy7-18" value="sbox_init_addr(8:0)" style="rounded=0;whiteSpace=wrap;html=1;fillColor=none;strokeColor=none;fontSize=13;" vertex="1" parent="ROXL5avVqIjRntkrCK3H-1">
          <mxGeometry x="-80" y="-509.99999999999994" width="120" height="30" as="geometry" />
        </mxCell>
        <mxCell id="UsUdv7iphlGZzBfHlEy7-19" value="" style="endArrow=classic;html=1;rounded=0;fillColor=none;strokeColor=default;strokeWidth=2;" edge="1" parent="ROXL5avVqIjRntkrCK3H-1">
          <mxGeometry width="50" height="50" relative="1" as="geometry">
            <mxPoint x="-20" y="-439.99999999999994" as="sourcePoint" />
            <mxPoint x="40" y="-439.99999999999994" as="targetPoint" />
          </mxGeometry>
        </mxCell>
        <mxCell id="UsUdv7iphlGZzBfHlEy7-20" value="sbox0_init_dout(31:0)" style="rounded=0;whiteSpace=wrap;html=1;fillColor=none;strokeColor=none;fontSize=13;" vertex="1" parent="ROXL5avVqIjRntkrCK3H-1">
          <mxGeometry x="-90" y="-469.99999999999994" width="130" height="30" as="geometry" />
        </mxCell>
        <mxCell id="UsUdv7iphlGZzBfHlEy7-24" value="" style="endArrow=classic;html=1;rounded=0;fillColor=none;strokeColor=default;strokeWidth=2;" edge="1" parent="ROXL5avVqIjRntkrCK3H-1">
          <mxGeometry width="50" height="50" relative="1" as="geometry">
            <mxPoint x="-20" y="-400.82999999999987" as="sourcePoint" />
            <mxPoint x="40" y="-400.82999999999987" as="targetPoint" />
          </mxGeometry>
        </mxCell>
        <mxCell id="UsUdv7iphlGZzBfHlEy7-25" value="sbox1_init_dout(31:0)" style="rounded=0;whiteSpace=wrap;html=1;fillColor=none;strokeColor=none;fontSize=13;" vertex="1" parent="ROXL5avVqIjRntkrCK3H-1">
          <mxGeometry x="-90" y="-430.82999999999987" width="130" height="30" as="geometry" />
        </mxCell>
        <mxCell id="UsUdv7iphlGZzBfHlEy7-26" value="" style="endArrow=classic;html=1;rounded=0;fillColor=none;strokeColor=default;strokeWidth=2;" edge="1" parent="ROXL5avVqIjRntkrCK3H-1">
          <mxGeometry width="50" height="50" relative="1" as="geometry">
            <mxPoint x="-20" y="-359.99999999999994" as="sourcePoint" />
            <mxPoint x="40" y="-359.99999999999994" as="targetPoint" />
          </mxGeometry>
        </mxCell>
        <mxCell id="UsUdv7iphlGZzBfHlEy7-27" value="sbox2_init_dout(31:0)" style="rounded=0;whiteSpace=wrap;html=1;fillColor=none;strokeColor=none;fontSize=13;" vertex="1" parent="ROXL5avVqIjRntkrCK3H-1">
          <mxGeometry x="-90" y="-389.99999999999994" width="130" height="30" as="geometry" />
        </mxCell>
        <mxCell id="UsUdv7iphlGZzBfHlEy7-28" value="" style="endArrow=classic;html=1;rounded=0;fillColor=none;strokeColor=default;strokeWidth=2;" edge="1" parent="ROXL5avVqIjRntkrCK3H-1">
          <mxGeometry width="50" height="50" relative="1" as="geometry">
            <mxPoint x="-20" y="-320.4199999999999" as="sourcePoint" />
            <mxPoint x="40" y="-320.4199999999999" as="targetPoint" />
          </mxGeometry>
        </mxCell>
        <mxCell id="UsUdv7iphlGZzBfHlEy7-29" value="sbox3_init_dout(31:0)" style="rounded=0;whiteSpace=wrap;html=1;fillColor=none;strokeColor=none;fontSize=13;" vertex="1" parent="ROXL5avVqIjRntkrCK3H-1">
          <mxGeometry x="-90" y="-350.4199999999999" width="130" height="30" as="geometry" />
        </mxCell>
        <mxCell id="UsUdv7iphlGZzBfHlEy7-30" value="" style="endArrow=classic;html=1;rounded=0;fillColor=none;strokeColor=default;strokeWidth=2;" edge="1" parent="ROXL5avVqIjRntkrCK3H-1">
          <mxGeometry width="50" height="50" relative="1" as="geometry">
            <mxPoint x="-20" y="-279.99999999999994" as="sourcePoint" />
            <mxPoint x="40" y="-279.99999999999994" as="targetPoint" />
          </mxGeometry>
        </mxCell>
        <mxCell id="UsUdv7iphlGZzBfHlEy7-31" value="skinit_dout(31:0)" style="rounded=0;whiteSpace=wrap;html=1;fillColor=none;strokeColor=none;fontSize=13;" vertex="1" parent="ROXL5avVqIjRntkrCK3H-1">
          <mxGeometry x="-60" y="-309.99999999999994" width="100" height="30" as="geometry" />
        </mxCell>
        <mxCell id="UsUdv7iphlGZzBfHlEy7-32" value="" style="endArrow=classic;html=1;rounded=0;fillColor=none;strokeColor=default;strokeWidth=2;" edge="1" parent="ROXL5avVqIjRntkrCK3H-1">
          <mxGeometry width="50" height="50" relative="1" as="geometry">
            <mxPoint x="-20" y="-239.99999999999997" as="sourcePoint" />
            <mxPoint x="40" y="-239.99999999999997" as="targetPoint" />
          </mxGeometry>
        </mxCell>
        <mxCell id="UsUdv7iphlGZzBfHlEy7-33" value="key_dout(31:0)" style="rounded=0;whiteSpace=wrap;html=1;fillColor=none;strokeColor=none;fontSize=13;" vertex="1" parent="ROXL5avVqIjRntkrCK3H-1">
          <mxGeometry x="-50" y="-269.99999999999994" width="90" height="30" as="geometry" />
        </mxCell>
        <mxCell id="yf8Vn-Xlz2NRk6f_VjwH-5" style="edgeStyle=orthogonalEdgeStyle;rounded=0;orthogonalLoop=1;jettySize=auto;html=1;strokeWidth=2;entryX=-0.003;entryY=0.034;entryDx=0;entryDy=0;entryPerimeter=0;" edge="1" parent="ROXL5avVqIjRntkrCK3H-1" source="XqILv_S12UO4Z8dTb94o-0" target="HddmtoGJl1wyssH-DAXx-5">
          <mxGeometry relative="1" as="geometry">
            <mxPoint x="340" y="-920" as="targetPoint" />
            <Array as="points">
              <mxPoint x="1240" y="-920" />
              <mxPoint x="1240" y="-1000" />
              <mxPoint x="320" y="-1000" />
              <mxPoint x="320" y="-919" />
            </Array>
          </mxGeometry>
        </mxCell>
        <mxCell id="XqILv_S12UO4Z8dTb94o-0" value="&lt;b&gt;SHIFT REGISTER&lt;br style=&quot;font-size: 16px;&quot;&gt;&lt;/b&gt;active_sbox&lt;br style=&quot;font-size: 16px;&quot;&gt;&lt;i&gt;4x1 rot, left&lt;/i&gt;" style="rounded=0;whiteSpace=wrap;html=1;fontSize=16;fillColor=#dae8fc;strokeColor=#6c8ebf;" vertex="1" parent="ROXL5avVqIjRntkrCK3H-1">
          <mxGeometry x="1040" y="-959.9999999999999" width="160" height="80" as="geometry" />
        </mxCell>
        <mxCell id="HddmtoGJl1wyssH-DAXx-79" style="edgeStyle=orthogonalEdgeStyle;rounded=0;orthogonalLoop=1;jettySize=auto;html=1;entryX=0;entryY=0.5;entryDx=0;entryDy=0;strokeWidth=2;" edge="1" parent="ROXL5avVqIjRntkrCK3H-1" source="uXIHEasND4VUtbEaPFgl-0" target="HddmtoGJl1wyssH-DAXx-78">
          <mxGeometry relative="1" as="geometry" />
        </mxCell>
        <mxCell id="uXIHEasND4VUtbEaPFgl-1" value="" style="rounded=0;whiteSpace=wrap;html=1;fillColor=#E6E6E6;" vertex="1" parent="ROXL5avVqIjRntkrCK3H-1">
          <mxGeometry x="40" y="-690" width="30" height="20" as="geometry" />
        </mxCell>
        <mxCell id="uXIHEasND4VUtbEaPFgl-2" value="" style="rounded=0;whiteSpace=wrap;html=1;fillColor=#E6E6E6;" vertex="1" parent="ROXL5avVqIjRntkrCK3H-1">
          <mxGeometry x="40" y="-650" width="30" height="20" as="geometry" />
        </mxCell>
        <mxCell id="uXIHEasND4VUtbEaPFgl-3" value="" style="rounded=0;whiteSpace=wrap;html=1;fillColor=#E6E6E6;" vertex="1" parent="ROXL5avVqIjRntkrCK3H-1">
          <mxGeometry x="40" y="-610" width="30" height="20" as="geometry" />
        </mxCell>
        <mxCell id="uXIHEasND4VUtbEaPFgl-4" value="" style="rounded=0;whiteSpace=wrap;html=1;fillColor=#E6E6E6;" vertex="1" parent="ROXL5avVqIjRntkrCK3H-1">
          <mxGeometry x="40" y="-570" width="30" height="20" as="geometry" />
        </mxCell>
        <mxCell id="uXIHEasND4VUtbEaPFgl-5" value="" style="rounded=0;whiteSpace=wrap;html=1;fillColor=#E6E6E6;" vertex="1" parent="ROXL5avVqIjRntkrCK3H-1">
          <mxGeometry x="40" y="-530" width="30" height="20" as="geometry" />
        </mxCell>
        <mxCell id="uXIHEasND4VUtbEaPFgl-6" value="" style="rounded=0;whiteSpace=wrap;html=1;fillColor=#E6E6E6;" vertex="1" parent="ROXL5avVqIjRntkrCK3H-1">
          <mxGeometry x="40" y="-489.99999999999994" width="30" height="20" as="geometry" />
        </mxCell>
        <mxCell id="uXIHEasND4VUtbEaPFgl-7" value="" style="rounded=0;whiteSpace=wrap;html=1;fillColor=#E6E6E6;" vertex="1" parent="ROXL5avVqIjRntkrCK3H-1">
          <mxGeometry x="40" y="-449.99999999999994" width="30" height="20" as="geometry" />
        </mxCell>
        <mxCell id="uXIHEasND4VUtbEaPFgl-8" value="" style="rounded=0;whiteSpace=wrap;html=1;fillColor=#E6E6E6;" vertex="1" parent="ROXL5avVqIjRntkrCK3H-1">
          <mxGeometry x="40" y="-409.99999999999994" width="30" height="20" as="geometry" />
        </mxCell>
        <mxCell id="uXIHEasND4VUtbEaPFgl-9" value="" style="rounded=0;whiteSpace=wrap;html=1;fillColor=#E6E6E6;" vertex="1" parent="ROXL5avVqIjRntkrCK3H-1">
          <mxGeometry x="40" y="-370.42" width="30" height="20" as="geometry" />
        </mxCell>
        <mxCell id="uXIHEasND4VUtbEaPFgl-10" value="" style="rounded=0;whiteSpace=wrap;html=1;fillColor=#E6E6E6;" vertex="1" parent="ROXL5avVqIjRntkrCK3H-1">
          <mxGeometry x="40" y="-329.99999999999994" width="30" height="20" as="geometry" />
        </mxCell>
        <mxCell id="uXIHEasND4VUtbEaPFgl-11" value="" style="rounded=0;whiteSpace=wrap;html=1;fillColor=#E6E6E6;" vertex="1" parent="ROXL5avVqIjRntkrCK3H-1">
          <mxGeometry x="40" y="-289.99999999999994" width="30" height="20" as="geometry" />
        </mxCell>
        <mxCell id="uXIHEasND4VUtbEaPFgl-12" value="" style="rounded=0;whiteSpace=wrap;html=1;fillColor=#E6E6E6;" vertex="1" parent="ROXL5avVqIjRntkrCK3H-1">
          <mxGeometry x="40" y="-249.99999999999997" width="30" height="20" as="geometry" />
        </mxCell>
        <mxCell id="uXIHEasND4VUtbEaPFgl-13" value="&lt;b&gt;COUNTER&lt;br&gt;&lt;/b&gt;cost_counter&lt;br style=&quot;font-size: 16px;&quot;&gt;&lt;i&gt;init : 2, Cost+2 bits&lt;/i&gt;" style="rounded=0;whiteSpace=wrap;html=1;fontSize=16;fillColor=#ffe6cc;strokeColor=#d79b00;" vertex="1" parent="ROXL5avVqIjRntkrCK3H-1">
          <mxGeometry x="1040" y="-870" width="160" height="80" as="geometry" />
        </mxCell>
        <mxCell id="WzdTlN7MtvMuHJnWvTXp-1" value="&lt;b&gt;COUNTER&lt;br&gt;&lt;/b&gt;loop_end_counter&lt;br style=&quot;font-size: 16px;&quot;&gt;&lt;i&gt;init : 1, 9 bits&lt;/i&gt;" style="rounded=0;whiteSpace=wrap;html=1;fontSize=16;fillColor=#ffe6cc;strokeColor=#d79b00;" vertex="1" parent="ROXL5avVqIjRntkrCK3H-1">
          <mxGeometry x="1040" y="-689.9999999999999" width="160" height="80" as="geometry" />
        </mxCell>
        <mxCell id="trrLqFMG_M34G20wl4KB-0" value="&lt;b&gt;D FLIP FLOP&lt;br&gt;&lt;/b&gt;flag_firstExpandKey" style="rounded=0;whiteSpace=wrap;html=1;fontSize=16;fillColor=#fff2cc;strokeColor=#d6b656;" vertex="1" parent="ROXL5avVqIjRntkrCK3H-1">
          <mxGeometry x="1041" y="20.000000000000114" width="160" height="80" as="geometry" />
        </mxCell>
        <mxCell id="yf8Vn-Xlz2NRk6f_VjwH-37" style="edgeStyle=orthogonalEdgeStyle;rounded=0;orthogonalLoop=1;jettySize=auto;html=1;strokeWidth=2;entryX=-0.002;entryY=0.974;entryDx=0;entryDy=0;entryPerimeter=0;" edge="1" parent="ROXL5avVqIjRntkrCK3H-1" source="trrLqFMG_M34G20wl4KB-1" target="HddmtoGJl1wyssH-DAXx-5">
          <mxGeometry relative="1" as="geometry">
            <mxPoint x="380" y="210" as="targetPoint" />
            <Array as="points">
              <mxPoint x="1240" y="160" />
              <mxPoint x="1240" y="280" />
              <mxPoint x="360" y="280" />
              <mxPoint x="360" y="209" />
            </Array>
          </mxGeometry>
        </mxCell>
        <mxCell id="trrLqFMG_M34G20wl4KB-1" value="&lt;b&gt;D FLIP FLOP&lt;/b&gt;&lt;br&gt;flag_useSaltDword" style="rounded=0;whiteSpace=wrap;html=1;fontSize=16;fillColor=#fff2cc;strokeColor=#d6b656;" vertex="1" parent="ROXL5avVqIjRntkrCK3H-1">
          <mxGeometry x="1040" y="120.00000000000011" width="160" height="80" as="geometry" />
        </mxCell>
        <mxCell id="HddmtoGJl1wyssH-DAXx-0" value="&lt;b&gt;BLOWFISH&amp;nbsp;&lt;/b&gt;&lt;br&gt;bf_enc" style="rounded=0;whiteSpace=wrap;html=1;fontSize=16;fillColor=#CCCCFF;strokeColor=#9999FF;fontColor=#333333;" vertex="1" parent="ROXL5avVqIjRntkrCK3H-1">
          <mxGeometry x="1321" y="-360" width="160" height="360" as="geometry" />
        </mxCell>
        <mxCell id="HddmtoGJl1wyssH-DAXx-1" value="&lt;b&gt;REGISTER&lt;br&gt;&lt;/b&gt;bf_dout_delay&lt;br&gt;&lt;i&gt;64 bits&lt;/i&gt;" style="rounded=0;whiteSpace=wrap;html=1;fontSize=16;fillColor=#f8cecc;strokeColor=#b85450;" vertex="1" parent="ROXL5avVqIjRntkrCK3H-1">
          <mxGeometry x="1680" y="-360" width="160" height="80" as="geometry" />
        </mxCell>
        <mxCell id="HddmtoGJl1wyssH-DAXx-2" value="&lt;b&gt;REGISTER&lt;br&gt;&lt;/b&gt;bf_dout_delay_twice&lt;br&gt;&lt;i&gt;64 bits&lt;/i&gt;" style="rounded=0;whiteSpace=wrap;html=1;fontSize=16;fillColor=#f8cecc;strokeColor=#b85450;" vertex="1" parent="ROXL5avVqIjRntkrCK3H-1">
          <mxGeometry x="1920" y="-360" width="160" height="80" as="geometry" />
        </mxCell>
        <mxCell id="HddmtoGJl1wyssH-DAXx-5" value="FSM" style="rounded=0;whiteSpace=wrap;html=1;fontSize=30;fontStyle=1;fillColor=#f5f5f5;fontColor=#333333;strokeColor=#666666;" vertex="1" parent="ROXL5avVqIjRntkrCK3H-1">
          <mxGeometry x="400" y="-960" width="440" height="1200" as="geometry" />
        </mxCell>
        <mxCell id="HddmtoGJl1wyssH-DAXx-9" value="" style="edgeStyle=none;orthogonalLoop=1;jettySize=auto;html=1;rounded=0;startArrow=none;startFill=0;endArrow=classic;endFill=1;" edge="1" parent="ROXL5avVqIjRntkrCK3H-1">
          <mxGeometry width="100" relative="1" as="geometry">
            <mxPoint x="2240" y="-560" as="sourcePoint" />
            <mxPoint x="2300" y="-560" as="targetPoint" />
            <Array as="points" />
          </mxGeometry>
        </mxCell>
        <mxCell id="HddmtoGJl1wyssH-DAXx-10" value="memory_init" style="rounded=0;whiteSpace=wrap;html=1;fillColor=none;strokeColor=none;fontSize=13;" vertex="1" parent="ROXL5avVqIjRntkrCK3H-1">
          <mxGeometry x="2240" y="-590" width="90" height="30" as="geometry" />
        </mxCell>
        <mxCell id="HddmtoGJl1wyssH-DAXx-11" value="" style="rounded=0;whiteSpace=wrap;html=1;fillColor=#E6E6E6;" vertex="1" parent="ROXL5avVqIjRntkrCK3H-1">
          <mxGeometry x="2210" y="-570" width="30" height="20" as="geometry" />
        </mxCell>
        <mxCell id="HddmtoGJl1wyssH-DAXx-12" value="" style="edgeStyle=none;orthogonalLoop=1;jettySize=auto;html=1;rounded=0;startArrow=none;startFill=0;endArrow=classic;endFill=1;strokeWidth=2;" edge="1" parent="ROXL5avVqIjRntkrCK3H-1">
          <mxGeometry width="100" relative="1" as="geometry">
            <mxPoint x="2240" y="-520" as="sourcePoint" />
            <mxPoint x="2300" y="-520" as="targetPoint" />
            <Array as="points" />
          </mxGeometry>
        </mxCell>
        <mxCell id="HddmtoGJl1wyssH-DAXx-13" value="key_addr(4:0)" style="rounded=0;whiteSpace=wrap;html=1;fillColor=none;strokeColor=none;fontSize=13;" vertex="1" parent="ROXL5avVqIjRntkrCK3H-1">
          <mxGeometry x="2240" y="-550" width="100" height="30" as="geometry" />
        </mxCell>
        <mxCell id="HddmtoGJl1wyssH-DAXx-14" value="" style="rounded=0;whiteSpace=wrap;html=1;fillColor=#E6E6E6;" vertex="1" parent="ROXL5avVqIjRntkrCK3H-1">
          <mxGeometry x="2210" y="-530" width="30" height="20" as="geometry" />
        </mxCell>
        <mxCell id="HddmtoGJl1wyssH-DAXx-15" value="" style="edgeStyle=none;orthogonalLoop=1;jettySize=auto;html=1;rounded=0;startArrow=none;startFill=0;endArrow=classic;endFill=1;" edge="1" parent="ROXL5avVqIjRntkrCK3H-1">
          <mxGeometry width="100" relative="1" as="geometry">
            <mxPoint x="2240" y="-480" as="sourcePoint" />
            <mxPoint x="2300" y="-480" as="targetPoint" />
            <Array as="points" />
          </mxGeometry>
        </mxCell>
        <mxCell id="HddmtoGJl1wyssH-DAXx-16" value="key_done" style="rounded=0;whiteSpace=wrap;html=1;fillColor=none;strokeColor=none;fontSize=13;" vertex="1" parent="ROXL5avVqIjRntkrCK3H-1">
          <mxGeometry x="2240" y="-510" width="80" height="30" as="geometry" />
        </mxCell>
        <mxCell id="HddmtoGJl1wyssH-DAXx-17" value="" style="rounded=0;whiteSpace=wrap;html=1;fillColor=#E6E6E6;" vertex="1" parent="ROXL5avVqIjRntkrCK3H-1">
          <mxGeometry x="2210" y="-490" width="30" height="20" as="geometry" />
        </mxCell>
        <mxCell id="HddmtoGJl1wyssH-DAXx-18" value="" style="edgeStyle=none;orthogonalLoop=1;jettySize=auto;html=1;rounded=0;startArrow=none;startFill=0;endArrow=classic;endFill=1;strokeWidth=2;" edge="1" parent="ROXL5avVqIjRntkrCK3H-1">
          <mxGeometry width="100" relative="1" as="geometry">
            <mxPoint x="2240" y="-440.00000000000006" as="sourcePoint" />
            <mxPoint x="2300" y="-440.00000000000006" as="targetPoint" />
            <Array as="points" />
          </mxGeometry>
        </mxCell>
        <mxCell id="HddmtoGJl1wyssH-DAXx-19" value="dout(63:0)" style="rounded=0;whiteSpace=wrap;html=1;fillColor=none;strokeColor=none;fontSize=13;" vertex="1" parent="ROXL5avVqIjRntkrCK3H-1">
          <mxGeometry x="2240" y="-470.00000000000006" width="80" height="30" as="geometry" />
        </mxCell>
        <mxCell id="HddmtoGJl1wyssH-DAXx-20" value="" style="rounded=0;whiteSpace=wrap;html=1;fillColor=#E6E6E6;" vertex="1" parent="ROXL5avVqIjRntkrCK3H-1">
          <mxGeometry x="2210" y="-450.00000000000006" width="30" height="20" as="geometry" />
        </mxCell>
        <mxCell id="HddmtoGJl1wyssH-DAXx-21" value="" style="edgeStyle=none;orthogonalLoop=1;jettySize=auto;html=1;rounded=0;startArrow=none;startFill=0;endArrow=classic;endFill=1;" edge="1" parent="ROXL5avVqIjRntkrCK3H-1">
          <mxGeometry width="100" relative="1" as="geometry">
            <mxPoint x="2240" y="-400.00000000000006" as="sourcePoint" />
            <mxPoint x="2300" y="-400.00000000000006" as="targetPoint" />
            <Array as="points" />
          </mxGeometry>
        </mxCell>
        <mxCell id="HddmtoGJl1wyssH-DAXx-22" value="dout_valid" style="rounded=0;whiteSpace=wrap;html=1;fillColor=none;strokeColor=none;fontSize=13;" vertex="1" parent="ROXL5avVqIjRntkrCK3H-1">
          <mxGeometry x="2240" y="-430.00000000000006" width="80" height="30" as="geometry" />
        </mxCell>
        <mxCell id="HddmtoGJl1wyssH-DAXx-23" value="" style="rounded=0;whiteSpace=wrap;html=1;fillColor=#E6E6E6;" vertex="1" parent="ROXL5avVqIjRntkrCK3H-1">
          <mxGeometry x="2210" y="-410.00000000000006" width="30" height="20" as="geometry" />
        </mxCell>
        <mxCell id="HddmtoGJl1wyssH-DAXx-52" value="Write enable, Reset, Address, Input" style="rounded=0;whiteSpace=wrap;html=1;fillColor=none;strokeColor=none;" vertex="1" parent="ROXL5avVqIjRntkrCK3H-1">
          <mxGeometry x="841" y="-360" width="200" height="40" as="geometry" />
        </mxCell>
        <mxCell id="HddmtoGJl1wyssH-DAXx-54" value="Write enable, Reset, Address, Input" style="rounded=0;whiteSpace=wrap;html=1;fillColor=none;strokeColor=none;" vertex="1" parent="ROXL5avVqIjRntkrCK3H-1">
          <mxGeometry x="840" y="-268.75" width="200" height="40" as="geometry" />
        </mxCell>
        <mxCell id="HddmtoGJl1wyssH-DAXx-56" value="Write enable, Reset, Address, Input" style="rounded=0;whiteSpace=wrap;html=1;fillColor=none;strokeColor=none;" vertex="1" parent="ROXL5avVqIjRntkrCK3H-1">
          <mxGeometry x="840" y="-180.42000000000002" width="200" height="40" as="geometry" />
        </mxCell>
        <mxCell id="HddmtoGJl1wyssH-DAXx-61" value="BRAM Output" style="rounded=0;whiteSpace=wrap;html=1;fillColor=none;strokeColor=none;" vertex="1" parent="ROXL5avVqIjRntkrCK3H-1">
          <mxGeometry x="1201" y="-360" width="119" height="40" as="geometry" />
        </mxCell>
        <mxCell id="HddmtoGJl1wyssH-DAXx-64" value="BRAM Output" style="rounded=0;whiteSpace=wrap;html=1;fillColor=none;strokeColor=none;" vertex="1" parent="ROXL5avVqIjRntkrCK3H-1">
          <mxGeometry x="1200" y="-270" width="120" height="40" as="geometry" />
        </mxCell>
        <mxCell id="HddmtoGJl1wyssH-DAXx-65" value="BRAM Output" style="rounded=0;whiteSpace=wrap;html=1;fillColor=none;strokeColor=none;" vertex="1" parent="ROXL5avVqIjRntkrCK3H-1">
          <mxGeometry x="1201" y="-177.5" width="119" height="37.5" as="geometry" />
        </mxCell>
        <mxCell id="HddmtoGJl1wyssH-DAXx-72" value="Enable, Reset" style="rounded=0;whiteSpace=wrap;html=1;fillColor=none;strokeColor=none;" vertex="1" parent="ROXL5avVqIjRntkrCK3H-1">
          <mxGeometry x="840" y="-960" width="200" height="40" as="geometry" />
        </mxCell>
        <mxCell id="HddmtoGJl1wyssH-DAXx-73" value="Enable, Reset" style="rounded=0;whiteSpace=wrap;html=1;fillColor=none;strokeColor=none;" vertex="1" parent="ROXL5avVqIjRntkrCK3H-1">
          <mxGeometry x="840" y="-870" width="200" height="40" as="geometry" />
        </mxCell>
        <mxCell id="HddmtoGJl1wyssH-DAXx-76" value="Enable, Reset" style="rounded=0;whiteSpace=wrap;html=1;fillColor=none;strokeColor=none;" vertex="1" parent="ROXL5avVqIjRntkrCK3H-1">
          <mxGeometry x="840" y="-779.17" width="200" height="40" as="geometry" />
        </mxCell>
        <mxCell id="HddmtoGJl1wyssH-DAXx-77" value="" style="endArrow=classic;html=1;rounded=0;fillColor=none;strokeColor=default;strokeWidth=2;endSize=6;targetPerimeterSpacing=0;jumpSize=6;entryX=0;entryY=0.5;entryDx=0;entryDy=0;" edge="1" parent="ROXL5avVqIjRntkrCK3H-1" source="uXIHEasND4VUtbEaPFgl-0">
          <mxGeometry width="50" height="50" relative="1" as="geometry">
            <mxPoint x="840" y="-742.5" as="sourcePoint" />
            <mxPoint x="1120" y="-742.0699999999999" as="targetPoint" />
          </mxGeometry>
        </mxCell>
        <mxCell id="HddmtoGJl1wyssH-DAXx-78" value="&lt;b&gt;REGISTER&lt;br&gt;&lt;/b&gt;loop_counter_delay&lt;br style=&quot;font-size: 16px;&quot;&gt;&lt;i&gt;9 bits&lt;/i&gt;" style="rounded=0;whiteSpace=wrap;html=1;fontSize=16;fillColor=#f8cecc;strokeColor=#b85450;" vertex="1" parent="ROXL5avVqIjRntkrCK3H-1">
          <mxGeometry x="1360" y="-779.1699999999998" width="160" height="80" as="geometry" />
        </mxCell>
        <mxCell id="yf8Vn-Xlz2NRk6f_VjwH-1" value="Enable, Reset" style="rounded=0;whiteSpace=wrap;html=1;fillColor=none;strokeColor=none;" vertex="1" parent="ROXL5avVqIjRntkrCK3H-1">
          <mxGeometry x="841" y="20" width="199" height="40" as="geometry" />
        </mxCell>
        <mxCell id="yf8Vn-Xlz2NRk6f_VjwH-3" value="Enable, Reset" style="rounded=0;whiteSpace=wrap;html=1;fillColor=none;strokeColor=none;" vertex="1" parent="ROXL5avVqIjRntkrCK3H-1">
          <mxGeometry x="841" y="120" width="199" height="40" as="geometry" />
        </mxCell>
        <mxCell id="yf8Vn-Xlz2NRk6f_VjwH-6" value="dout" style="rounded=0;whiteSpace=wrap;html=1;fillColor=none;strokeColor=none;" vertex="1" parent="ROXL5avVqIjRntkrCK3H-1">
          <mxGeometry x="1201" y="-960" width="40" height="40" as="geometry" />
        </mxCell>
        <mxCell id="yf8Vn-Xlz2NRk6f_VjwH-7" style="edgeStyle=orthogonalEdgeStyle;rounded=0;orthogonalLoop=1;jettySize=auto;html=1;strokeWidth=2;exitX=1;exitY=0.5;exitDx=0;exitDy=0;entryX=0;entryY=0.067;entryDx=0;entryDy=0;entryPerimeter=0;" edge="1" parent="ROXL5avVqIjRntkrCK3H-1" source="uXIHEasND4VUtbEaPFgl-13" target="HddmtoGJl1wyssH-DAXx-5">
          <mxGeometry relative="1" as="geometry">
            <mxPoint x="320" y="-880" as="targetPoint" />
            <mxPoint x="1280" y="-830" as="sourcePoint" />
            <Array as="points">
              <mxPoint x="1280" y="-830" />
              <mxPoint x="1280" y="-1040" />
              <mxPoint x="280" y="-1040" />
              <mxPoint x="280" y="-880" />
            </Array>
          </mxGeometry>
        </mxCell>
        <mxCell id="yf8Vn-Xlz2NRk6f_VjwH-8" value="costcnt" style="rounded=0;whiteSpace=wrap;html=1;fillColor=none;strokeColor=none;" vertex="1" parent="ROXL5avVqIjRntkrCK3H-1">
          <mxGeometry x="1201" y="-870" width="80" height="40" as="geometry" />
        </mxCell>
        <mxCell id="yf8Vn-Xlz2NRk6f_VjwH-9" value="loopcnt" style="rounded=0;whiteSpace=wrap;html=1;fillColor=none;strokeColor=none;" vertex="1" parent="ROXL5avVqIjRntkrCK3H-1">
          <mxGeometry x="1201" y="-779.17" width="120" height="40" as="geometry" />
        </mxCell>
        <mxCell id="yf8Vn-Xlz2NRk6f_VjwH-10" style="edgeStyle=orthogonalEdgeStyle;rounded=0;orthogonalLoop=1;jettySize=auto;html=1;strokeWidth=2;entryX=0;entryY=0.1;entryDx=0;entryDy=0;entryPerimeter=0;" edge="1" parent="ROXL5avVqIjRntkrCK3H-1" target="HddmtoGJl1wyssH-DAXx-5">
          <mxGeometry relative="1" as="geometry">
            <mxPoint x="330" y="-840" as="targetPoint" />
            <mxPoint x="1350" y="-739" as="sourcePoint" />
            <Array as="points">
              <mxPoint x="1320" y="-739" />
              <mxPoint x="1320" y="-1080" />
              <mxPoint x="240" y="-1080" />
              <mxPoint x="240" y="-840" />
            </Array>
          </mxGeometry>
        </mxCell>
        <mxCell id="yf8Vn-Xlz2NRk6f_VjwH-13" style="edgeStyle=orthogonalEdgeStyle;rounded=0;orthogonalLoop=1;jettySize=auto;html=1;strokeWidth=2;exitX=1;exitY=0.5;exitDx=0;exitDy=0;entryX=0;entryY=0.133;entryDx=0;entryDy=0;entryPerimeter=0;" edge="1" parent="ROXL5avVqIjRntkrCK3H-1" source="HddmtoGJl1wyssH-DAXx-78" target="HddmtoGJl1wyssH-DAXx-5">
          <mxGeometry relative="1" as="geometry">
            <mxPoint x="330" y="-800" as="targetPoint" />
            <mxPoint x="1680" y="-729.1700000000001" as="sourcePoint" />
            <Array as="points">
              <mxPoint x="1600" y="-739" />
              <mxPoint x="1600" y="-1120" />
              <mxPoint x="200" y="-1120" />
              <mxPoint x="200" y="-800" />
            </Array>
          </mxGeometry>
        </mxCell>
        <mxCell id="yf8Vn-Xlz2NRk6f_VjwH-15" value="loopcnt_d" style="rounded=0;whiteSpace=wrap;html=1;fillColor=none;strokeColor=none;" vertex="1" parent="ROXL5avVqIjRntkrCK3H-1">
          <mxGeometry x="1520" y="-779.17" width="80" height="40" as="geometry" />
        </mxCell>
        <mxCell id="yf8Vn-Xlz2NRk6f_VjwH-16" style="edgeStyle=orthogonalEdgeStyle;rounded=0;orthogonalLoop=1;jettySize=auto;html=1;strokeWidth=2;exitX=1;exitY=0.5;exitDx=0;exitDy=0;" edge="1" parent="ROXL5avVqIjRntkrCK3H-1" source="WzdTlN7MtvMuHJnWvTXp-1" target="HddmtoGJl1wyssH-DAXx-5">
          <mxGeometry relative="1" as="geometry">
            <mxPoint x="330" y="-760" as="targetPoint" />
            <mxPoint x="1279.94" y="-640.06" as="sourcePoint" />
            <Array as="points">
              <mxPoint x="1640" y="-650" />
              <mxPoint x="1640" y="-1160" />
              <mxPoint x="160" y="-1160" />
              <mxPoint x="160" y="-761" />
            </Array>
          </mxGeometry>
        </mxCell>
        <mxCell id="yf8Vn-Xlz2NRk6f_VjwH-17" value="loopendcnt" style="rounded=0;whiteSpace=wrap;html=1;fillColor=none;strokeColor=none;" vertex="1" parent="ROXL5avVqIjRntkrCK3H-1">
          <mxGeometry x="1201" y="-690" width="120" height="40" as="geometry" />
        </mxCell>
        <mxCell id="uXIHEasND4VUtbEaPFgl-0" value="&lt;b&gt;COUNTER&lt;br&gt;&lt;/b&gt;loop_counter&lt;br style=&quot;font-size: 16px;&quot;&gt;&lt;i&gt;init :0, 9 bits&lt;/i&gt;" style="rounded=0;whiteSpace=wrap;html=1;fontSize=16;fillColor=#ffe6cc;strokeColor=#d79b00;" vertex="1" parent="ROXL5avVqIjRntkrCK3H-1">
          <mxGeometry x="1040" y="-779.1699999999998" width="160" height="80" as="geometry" />
        </mxCell>
        <mxCell id="yf8Vn-Xlz2NRk6f_VjwH-19" style="edgeStyle=orthogonalEdgeStyle;rounded=0;orthogonalLoop=1;jettySize=auto;html=1;strokeWidth=2;" edge="1" parent="ROXL5avVqIjRntkrCK3H-1">
          <mxGeometry relative="1" as="geometry">
            <mxPoint x="840" y="-920.61" as="sourcePoint" />
            <mxPoint x="1040" y="-921" as="targetPoint" />
          </mxGeometry>
        </mxCell>
        <mxCell id="yf8Vn-Xlz2NRk6f_VjwH-20" style="edgeStyle=orthogonalEdgeStyle;rounded=0;orthogonalLoop=1;jettySize=auto;html=1;strokeWidth=2;" edge="1" parent="ROXL5avVqIjRntkrCK3H-1">
          <mxGeometry relative="1" as="geometry">
            <mxPoint x="840" y="-830.52" as="sourcePoint" />
            <mxPoint x="1040" y="-830.91" as="targetPoint" />
          </mxGeometry>
        </mxCell>
        <mxCell id="yf8Vn-Xlz2NRk6f_VjwH-21" style="edgeStyle=orthogonalEdgeStyle;rounded=0;orthogonalLoop=1;jettySize=auto;html=1;strokeWidth=2;" edge="1" parent="ROXL5avVqIjRntkrCK3H-1">
          <mxGeometry relative="1" as="geometry">
            <mxPoint x="840" y="-739.69" as="sourcePoint" />
            <mxPoint x="1040" y="-740.08" as="targetPoint" />
          </mxGeometry>
        </mxCell>
        <mxCell id="yf8Vn-Xlz2NRk6f_VjwH-24" style="edgeStyle=orthogonalEdgeStyle;rounded=0;orthogonalLoop=1;jettySize=auto;html=1;strokeWidth=2;" edge="1" parent="ROXL5avVqIjRntkrCK3H-1">
          <mxGeometry relative="1" as="geometry">
            <mxPoint x="940" y="-740" as="sourcePoint" />
            <mxPoint x="1040" y="-650.03" as="targetPoint" />
            <Array as="points">
              <mxPoint x="940" y="-690" />
              <mxPoint x="940" y="-650" />
            </Array>
          </mxGeometry>
        </mxCell>
        <mxCell id="yf8Vn-Xlz2NRk6f_VjwH-25" value="" style="endArrow=classic;html=1;rounded=0;fillColor=none;strokeColor=default;strokeWidth=2;endSize=6;targetPerimeterSpacing=0;jumpSize=6;entryX=-0.001;entryY=0.464;entryDx=0;entryDy=0;entryPerimeter=0;" edge="1" parent="ROXL5avVqIjRntkrCK3H-1" target="XZO48qd468Gqja3xGvcr-1">
          <mxGeometry width="50" height="50" relative="1" as="geometry">
            <mxPoint x="840" y="-140.41999999999985" as="sourcePoint" />
            <mxPoint x="1039" y="-140.41999999999996" as="targetPoint" />
          </mxGeometry>
        </mxCell>
        <mxCell id="yf8Vn-Xlz2NRk6f_VjwH-27" value="" style="endArrow=classic;html=1;rounded=0;fillColor=none;strokeColor=default;strokeWidth=2;endSize=6;targetPerimeterSpacing=0;jumpSize=6;entryX=-0.001;entryY=0.464;entryDx=0;entryDy=0;entryPerimeter=0;" edge="1" parent="ROXL5avVqIjRntkrCK3H-1">
          <mxGeometry width="50" height="50" relative="1" as="geometry">
            <mxPoint x="841" y="60.00000000000017" as="sourcePoint" />
            <mxPoint x="1041" y="60.420000000000016" as="targetPoint" />
          </mxGeometry>
        </mxCell>
        <mxCell id="yf8Vn-Xlz2NRk6f_VjwH-28" value="" style="endArrow=classic;html=1;rounded=0;fillColor=none;strokeColor=default;strokeWidth=2;endSize=6;targetPerimeterSpacing=0;jumpSize=6;entryX=-0.001;entryY=0.464;entryDx=0;entryDy=0;entryPerimeter=0;" edge="1" parent="ROXL5avVqIjRntkrCK3H-1">
          <mxGeometry width="50" height="50" relative="1" as="geometry">
            <mxPoint x="841" y="160.00000000000014" as="sourcePoint" />
            <mxPoint x="1041" y="160.42" as="targetPoint" />
          </mxGeometry>
        </mxCell>
        <mxCell id="yf8Vn-Xlz2NRk6f_VjwH-29" value="" style="endArrow=classic;html=1;rounded=0;fillColor=none;strokeColor=default;strokeWidth=2;endSize=6;targetPerimeterSpacing=0;jumpSize=6;entryX=-0.001;entryY=0.464;entryDx=0;entryDy=0;entryPerimeter=0;" edge="1" parent="ROXL5avVqIjRntkrCK3H-1">
          <mxGeometry width="50" height="50" relative="1" as="geometry">
            <mxPoint x="841" y="-228.95999999999987" as="sourcePoint" />
            <mxPoint x="1041" y="-228.54000000000002" as="targetPoint" />
          </mxGeometry>
        </mxCell>
        <mxCell id="yf8Vn-Xlz2NRk6f_VjwH-30" value="" style="endArrow=classic;html=1;rounded=0;fillColor=none;strokeColor=default;strokeWidth=2;endSize=6;targetPerimeterSpacing=0;jumpSize=6;entryX=-0.001;entryY=0.464;entryDx=0;entryDy=0;entryPerimeter=0;" edge="1" parent="ROXL5avVqIjRntkrCK3H-1">
          <mxGeometry width="50" height="50" relative="1" as="geometry">
            <mxPoint x="840" y="-320.41999999999985" as="sourcePoint" />
            <mxPoint x="1040" y="-320" as="targetPoint" />
          </mxGeometry>
        </mxCell>
        <mxCell id="yf8Vn-Xlz2NRk6f_VjwH-31" value="" style="endArrow=classic;html=1;rounded=0;fillColor=none;strokeColor=default;strokeWidth=2;endSize=6;targetPerimeterSpacing=0;jumpSize=6;" edge="1" parent="ROXL5avVqIjRntkrCK3H-1">
          <mxGeometry width="50" height="50" relative="1" as="geometry">
            <mxPoint x="840" y="-39.99999999999983" as="sourcePoint" />
            <mxPoint x="1320" y="-40" as="targetPoint" />
          </mxGeometry>
        </mxCell>
        <mxCell id="yf8Vn-Xlz2NRk6f_VjwH-32" value="Start" style="rounded=0;whiteSpace=wrap;html=1;fillColor=none;strokeColor=none;" vertex="1" parent="ROXL5avVqIjRntkrCK3H-1">
          <mxGeometry x="840" y="-80" width="480" height="40" as="geometry" />
        </mxCell>
        <mxCell id="yf8Vn-Xlz2NRk6f_VjwH-34" value="" style="endArrow=classic;html=1;rounded=0;fillColor=none;strokeColor=default;strokeWidth=2;endSize=6;targetPerimeterSpacing=0;jumpSize=6;" edge="1" parent="ROXL5avVqIjRntkrCK3H-1">
          <mxGeometry width="50" height="50" relative="1" as="geometry">
            <mxPoint x="1201" y="-140.41999999999985" as="sourcePoint" />
            <mxPoint x="1320" y="-140" as="targetPoint" />
          </mxGeometry>
        </mxCell>
        <mxCell id="yf8Vn-Xlz2NRk6f_VjwH-35" value="" style="endArrow=classic;html=1;rounded=0;fillColor=none;strokeColor=default;strokeWidth=2;endSize=6;targetPerimeterSpacing=0;jumpSize=6;" edge="1" parent="ROXL5avVqIjRntkrCK3H-1">
          <mxGeometry width="50" height="50" relative="1" as="geometry">
            <mxPoint x="1200" y="-228.74999999999983" as="sourcePoint" />
            <mxPoint x="1319" y="-228.32999999999998" as="targetPoint" />
          </mxGeometry>
        </mxCell>
        <mxCell id="yf8Vn-Xlz2NRk6f_VjwH-36" value="" style="endArrow=classic;html=1;rounded=0;fillColor=none;strokeColor=default;strokeWidth=2;endSize=6;targetPerimeterSpacing=0;jumpSize=6;entryX=-0.006;entryY=0.111;entryDx=0;entryDy=0;entryPerimeter=0;" edge="1" parent="ROXL5avVqIjRntkrCK3H-1" target="HddmtoGJl1wyssH-DAXx-0">
          <mxGeometry width="50" height="50" relative="1" as="geometry">
            <mxPoint x="1200.5" y="-320.41999999999985" as="sourcePoint" />
            <mxPoint x="1319.5" y="-320" as="targetPoint" />
          </mxGeometry>
        </mxCell>
        <mxCell id="yf8Vn-Xlz2NRk6f_VjwH-38" style="edgeStyle=orthogonalEdgeStyle;rounded=0;orthogonalLoop=1;jettySize=auto;html=1;strokeWidth=2;" edge="1" parent="ROXL5avVqIjRntkrCK3H-1" target="HddmtoGJl1wyssH-DAXx-5">
          <mxGeometry relative="1" as="geometry">
            <mxPoint x="370" y="160" as="targetPoint" />
            <mxPoint x="1201" y="60" as="sourcePoint" />
            <Array as="points">
              <mxPoint x="1280" y="60" />
              <mxPoint x="1280" y="320" />
              <mxPoint x="320" y="320" />
              <mxPoint x="320" y="160" />
            </Array>
          </mxGeometry>
        </mxCell>
        <mxCell id="yf8Vn-Xlz2NRk6f_VjwH-39" style="edgeStyle=orthogonalEdgeStyle;rounded=0;orthogonalLoop=1;jettySize=auto;html=1;strokeWidth=2;" edge="1" parent="ROXL5avVqIjRntkrCK3H-1" target="HddmtoGJl1wyssH-DAXx-5">
          <mxGeometry relative="1" as="geometry">
            <mxPoint x="370" y="120" as="targetPoint" />
            <mxPoint x="1481" y="-40" as="sourcePoint" />
            <Array as="points">
              <mxPoint x="1600" y="-40" />
              <mxPoint x="1600" y="360" />
              <mxPoint x="280" y="360" />
              <mxPoint x="280" y="120" />
            </Array>
          </mxGeometry>
        </mxCell>
        <mxCell id="yf8Vn-Xlz2NRk6f_VjwH-40" value="Reset, Address, Done" style="rounded=0;whiteSpace=wrap;html=1;fillColor=none;strokeColor=none;" vertex="1" parent="ROXL5avVqIjRntkrCK3H-1">
          <mxGeometry x="1481" y="-77.5" width="119" height="37.5" as="geometry" />
        </mxCell>
        <mxCell id="yf8Vn-Xlz2NRk6f_VjwH-41" style="edgeStyle=orthogonalEdgeStyle;rounded=0;orthogonalLoop=1;jettySize=auto;html=1;strokeWidth=2;" edge="1" parent="ROXL5avVqIjRntkrCK3H-1">
          <mxGeometry relative="1" as="geometry">
            <mxPoint x="400" y="80" as="targetPoint" />
            <mxPoint x="1482" y="-320" as="sourcePoint" />
            <Array as="points">
              <mxPoint x="1640" y="-320" />
              <mxPoint x="1640" y="400" />
              <mxPoint x="240" y="400" />
              <mxPoint x="240" y="80" />
              <mxPoint x="371" y="80" />
            </Array>
          </mxGeometry>
        </mxCell>
        <mxCell id="yf8Vn-Xlz2NRk6f_VjwH-42" value="" style="endArrow=classic;html=1;rounded=0;fillColor=none;strokeColor=default;strokeWidth=2;endSize=6;targetPerimeterSpacing=0;jumpSize=6;" edge="1" parent="ROXL5avVqIjRntkrCK3H-1">
          <mxGeometry width="50" height="50" relative="1" as="geometry">
            <mxPoint x="1640" y="-319.9999999999999" as="sourcePoint" />
            <mxPoint x="1680" y="-320" as="targetPoint" />
          </mxGeometry>
        </mxCell>
        <mxCell id="yf8Vn-Xlz2NRk6f_VjwH-43" value="dout" style="rounded=0;whiteSpace=wrap;html=1;fillColor=none;strokeColor=none;" vertex="1" parent="ROXL5avVqIjRntkrCK3H-1">
          <mxGeometry x="1481" y="-360" width="119" height="37.5" as="geometry" />
        </mxCell>
        <mxCell id="yf8Vn-Xlz2NRk6f_VjwH-44" style="edgeStyle=orthogonalEdgeStyle;rounded=0;orthogonalLoop=1;jettySize=auto;html=1;strokeWidth=2;entryX=0;entryY=0.833;entryDx=0;entryDy=0;entryPerimeter=0;" edge="1" parent="ROXL5avVqIjRntkrCK3H-1" target="HddmtoGJl1wyssH-DAXx-5">
          <mxGeometry relative="1" as="geometry">
            <mxPoint x="360" y="40" as="targetPoint" />
            <mxPoint x="1842" y="-320" as="sourcePoint" />
            <Array as="points">
              <mxPoint x="1880" y="-320" />
              <mxPoint x="1880" y="440" />
              <mxPoint x="200" y="440" />
              <mxPoint x="200" y="40" />
            </Array>
          </mxGeometry>
        </mxCell>
        <mxCell id="yf8Vn-Xlz2NRk6f_VjwH-45" value="" style="endArrow=classic;html=1;rounded=0;fillColor=none;strokeColor=default;strokeWidth=2;endSize=6;targetPerimeterSpacing=0;jumpSize=6;" edge="1" parent="ROXL5avVqIjRntkrCK3H-1">
          <mxGeometry width="50" height="50" relative="1" as="geometry">
            <mxPoint x="1880" y="-319.9999999999999" as="sourcePoint" />
            <mxPoint x="1920" y="-320" as="targetPoint" />
          </mxGeometry>
        </mxCell>
        <mxCell id="yf8Vn-Xlz2NRk6f_VjwH-46" value="dout_d" style="rounded=0;whiteSpace=wrap;html=1;fillColor=none;strokeColor=none;" vertex="1" parent="ROXL5avVqIjRntkrCK3H-1">
          <mxGeometry x="1840" y="-357.5" width="80" height="37.5" as="geometry" />
        </mxCell>
        <mxCell id="yf8Vn-Xlz2NRk6f_VjwH-47" style="edgeStyle=orthogonalEdgeStyle;rounded=0;orthogonalLoop=1;jettySize=auto;html=1;strokeWidth=2;" edge="1" parent="ROXL5avVqIjRntkrCK3H-1" target="HddmtoGJl1wyssH-DAXx-5">
          <mxGeometry relative="1" as="geometry">
            <mxPoint x="360" as="targetPoint" />
            <mxPoint x="2082" y="-320" as="sourcePoint" />
            <Array as="points">
              <mxPoint x="2120" y="-320" />
              <mxPoint x="2120" y="480" />
              <mxPoint x="160" y="480" />
              <mxPoint x="160" />
            </Array>
          </mxGeometry>
        </mxCell>
        <mxCell id="yf8Vn-Xlz2NRk6f_VjwH-48" value="dout_dd" style="rounded=0;whiteSpace=wrap;html=1;fillColor=none;strokeColor=none;" vertex="1" parent="ROXL5avVqIjRntkrCK3H-1">
          <mxGeometry x="2080" y="-357.5" width="80" height="37.5" as="geometry" />
        </mxCell>
        <mxCell id="yf8Vn-Xlz2NRk6f_VjwH-49" value="" style="endArrow=classic;html=1;rounded=0;fillColor=none;strokeColor=default;strokeWidth=2;entryX=-0.002;entryY=0.3;entryDx=0;entryDy=0;entryPerimeter=0;" edge="1" parent="ROXL5avVqIjRntkrCK3H-1" target="HddmtoGJl1wyssH-DAXx-5">
          <mxGeometry width="50" height="50" relative="1" as="geometry">
            <mxPoint x="70" y="-600.16" as="sourcePoint" />
            <mxPoint x="130" y="-600.16" as="targetPoint" />
          </mxGeometry>
        </mxCell>
        <mxCell id="yf8Vn-Xlz2NRk6f_VjwH-50" value="" style="endArrow=classic;html=1;rounded=0;fillColor=none;strokeColor=default;strokeWidth=1;entryX=-0.002;entryY=0.3;entryDx=0;entryDy=0;entryPerimeter=0;" edge="1" parent="ROXL5avVqIjRntkrCK3H-1">
          <mxGeometry width="50" height="50" relative="1" as="geometry">
            <mxPoint x="70" y="-640" as="sourcePoint" />
            <mxPoint x="399" y="-639.84" as="targetPoint" />
          </mxGeometry>
        </mxCell>
        <mxCell id="yf8Vn-Xlz2NRk6f_VjwH-51" value="" style="endArrow=classic;html=1;rounded=0;fillColor=none;strokeColor=default;strokeWidth=1;entryX=-0.002;entryY=0.3;entryDx=0;entryDy=0;entryPerimeter=0;" edge="1" parent="ROXL5avVqIjRntkrCK3H-1">
          <mxGeometry width="50" height="50" relative="1" as="geometry">
            <mxPoint x="70" y="-680" as="sourcePoint" />
            <mxPoint x="399" y="-679.84" as="targetPoint" />
          </mxGeometry>
        </mxCell>
        <mxCell id="yf8Vn-Xlz2NRk6f_VjwH-52" value="" style="endArrow=classic;html=1;rounded=0;fillColor=none;strokeColor=default;strokeWidth=1;entryX=-0.002;entryY=0.3;entryDx=0;entryDy=0;entryPerimeter=0;" edge="1" parent="ROXL5avVqIjRntkrCK3H-1">
          <mxGeometry width="50" height="50" relative="1" as="geometry">
            <mxPoint x="70" y="-560" as="sourcePoint" />
            <mxPoint x="399" y="-559.84" as="targetPoint" />
          </mxGeometry>
        </mxCell>
        <mxCell id="yf8Vn-Xlz2NRk6f_VjwH-53" value="" style="endArrow=classic;html=1;rounded=0;fillColor=none;strokeColor=default;strokeWidth=1;entryX=-0.002;entryY=0.3;entryDx=0;entryDy=0;entryPerimeter=0;" edge="1" parent="ROXL5avVqIjRntkrCK3H-1">
          <mxGeometry width="50" height="50" relative="1" as="geometry">
            <mxPoint x="70" y="-520" as="sourcePoint" />
            <mxPoint x="399" y="-519.84" as="targetPoint" />
          </mxGeometry>
        </mxCell>
        <mxCell id="yf8Vn-Xlz2NRk6f_VjwH-54" value="" style="endArrow=classic;html=1;rounded=0;fillColor=none;strokeColor=default;strokeWidth=2;entryX=-0.002;entryY=0.3;entryDx=0;entryDy=0;entryPerimeter=0;" edge="1" parent="ROXL5avVqIjRntkrCK3H-1">
          <mxGeometry width="50" height="50" relative="1" as="geometry">
            <mxPoint x="70" y="-480.38" as="sourcePoint" />
            <mxPoint x="399" y="-480.22" as="targetPoint" />
          </mxGeometry>
        </mxCell>
        <mxCell id="yf8Vn-Xlz2NRk6f_VjwH-55" value="" style="endArrow=classic;html=1;rounded=0;fillColor=none;strokeColor=default;strokeWidth=2;entryX=-0.002;entryY=0.3;entryDx=0;entryDy=0;entryPerimeter=0;" edge="1" parent="ROXL5avVqIjRntkrCK3H-1">
          <mxGeometry width="50" height="50" relative="1" as="geometry">
            <mxPoint x="70" y="-440.38" as="sourcePoint" />
            <mxPoint x="399" y="-440.22" as="targetPoint" />
          </mxGeometry>
        </mxCell>
        <mxCell id="yf8Vn-Xlz2NRk6f_VjwH-56" value="" style="endArrow=classic;html=1;rounded=0;fillColor=none;strokeColor=default;strokeWidth=2;entryX=-0.002;entryY=0.3;entryDx=0;entryDy=0;entryPerimeter=0;" edge="1" parent="ROXL5avVqIjRntkrCK3H-1">
          <mxGeometry width="50" height="50" relative="1" as="geometry">
            <mxPoint x="70" y="-400" as="sourcePoint" />
            <mxPoint x="399" y="-399.84000000000003" as="targetPoint" />
          </mxGeometry>
        </mxCell>
        <mxCell id="yf8Vn-Xlz2NRk6f_VjwH-57" value="" style="endArrow=classic;html=1;rounded=0;fillColor=none;strokeColor=default;strokeWidth=2;entryX=-0.002;entryY=0.3;entryDx=0;entryDy=0;entryPerimeter=0;" edge="1" parent="ROXL5avVqIjRntkrCK3H-1">
          <mxGeometry width="50" height="50" relative="1" as="geometry">
            <mxPoint x="70" y="-360" as="sourcePoint" />
            <mxPoint x="399" y="-359.84000000000003" as="targetPoint" />
          </mxGeometry>
        </mxCell>
        <mxCell id="yf8Vn-Xlz2NRk6f_VjwH-58" value="" style="endArrow=classic;html=1;rounded=0;fillColor=none;strokeColor=default;strokeWidth=2;entryX=-0.002;entryY=0.3;entryDx=0;entryDy=0;entryPerimeter=0;" edge="1" parent="ROXL5avVqIjRntkrCK3H-1">
          <mxGeometry width="50" height="50" relative="1" as="geometry">
            <mxPoint x="70" y="-320" as="sourcePoint" />
            <mxPoint x="399" y="-319.84000000000003" as="targetPoint" />
          </mxGeometry>
        </mxCell>
        <mxCell id="yf8Vn-Xlz2NRk6f_VjwH-59" value="" style="endArrow=classic;html=1;rounded=0;fillColor=none;strokeColor=default;strokeWidth=2;entryX=-0.002;entryY=0.3;entryDx=0;entryDy=0;entryPerimeter=0;" edge="1" parent="ROXL5avVqIjRntkrCK3H-1">
          <mxGeometry width="50" height="50" relative="1" as="geometry">
            <mxPoint x="70" y="-280.21999999999997" as="sourcePoint" />
            <mxPoint x="399" y="-280.06" as="targetPoint" />
          </mxGeometry>
        </mxCell>
        <mxCell id="yf8Vn-Xlz2NRk6f_VjwH-60" value="" style="endArrow=classic;html=1;rounded=0;fillColor=none;strokeColor=default;strokeWidth=2;entryX=-0.002;entryY=0.3;entryDx=0;entryDy=0;entryPerimeter=0;" edge="1" parent="ROXL5avVqIjRntkrCK3H-1">
          <mxGeometry width="50" height="50" relative="1" as="geometry">
            <mxPoint x="70" y="-240.21999999999997" as="sourcePoint" />
            <mxPoint x="399" y="-240.06" as="targetPoint" />
          </mxGeometry>
        </mxCell>
        <mxCell id="yf8Vn-Xlz2NRk6f_VjwH-62" value="BCRYPT CORE" style="rounded=0;whiteSpace=wrap;html=1;fillColor=none;strokeColor=none;fontSize=32;fontStyle=1" vertex="1" parent="ROXL5avVqIjRntkrCK3H-1">
          <mxGeometry x="1840" y="-1190" width="400" height="270" as="geometry" />
        </mxCell>
        <mxCell id="yf8Vn-Xlz2NRk6f_VjwH-63" value="" style="endArrow=classic;html=1;rounded=0;fillColor=none;strokeColor=default;strokeWidth=1;entryX=-0.002;entryY=0.3;entryDx=0;entryDy=0;entryPerimeter=0;exitX=1;exitY=0.333;exitDx=0;exitDy=0;exitPerimeter=0;" edge="1" parent="ROXL5avVqIjRntkrCK3H-1" source="HddmtoGJl1wyssH-DAXx-5">
          <mxGeometry width="50" height="50" relative="1" as="geometry">
            <mxPoint x="1881" y="-560" as="sourcePoint" />
            <mxPoint x="2210" y="-559.84" as="targetPoint" />
          </mxGeometry>
        </mxCell>
        <mxCell id="yf8Vn-Xlz2NRk6f_VjwH-65" value="" style="endArrow=classic;html=1;rounded=0;fillColor=none;strokeColor=default;strokeWidth=2;entryX=-0.002;entryY=0.3;entryDx=0;entryDy=0;entryPerimeter=0;exitX=1;exitY=0.333;exitDx=0;exitDy=0;exitPerimeter=0;" edge="1" parent="ROXL5avVqIjRntkrCK3H-1">
          <mxGeometry width="50" height="50" relative="1" as="geometry">
            <mxPoint x="840" y="-520" as="sourcePoint" />
            <mxPoint x="2210" y="-519.84" as="targetPoint" />
          </mxGeometry>
        </mxCell>
        <mxCell id="yf8Vn-Xlz2NRk6f_VjwH-66" value="" style="endArrow=classic;html=1;rounded=0;fillColor=none;strokeColor=default;strokeWidth=1;entryX=-0.002;entryY=0.3;entryDx=0;entryDy=0;entryPerimeter=0;exitX=1;exitY=0.333;exitDx=0;exitDy=0;exitPerimeter=0;" edge="1" parent="ROXL5avVqIjRntkrCK3H-1">
          <mxGeometry width="50" height="50" relative="1" as="geometry">
            <mxPoint x="841" y="-480" as="sourcePoint" />
            <mxPoint x="2211" y="-479.84000000000003" as="targetPoint" />
          </mxGeometry>
        </mxCell>
        <mxCell id="yf8Vn-Xlz2NRk6f_VjwH-68" value="" style="endArrow=classic;html=1;rounded=0;fillColor=none;strokeColor=default;strokeWidth=2;entryX=-0.002;entryY=0.3;entryDx=0;entryDy=0;entryPerimeter=0;exitX=1;exitY=0.333;exitDx=0;exitDy=0;exitPerimeter=0;" edge="1" parent="ROXL5avVqIjRntkrCK3H-1">
          <mxGeometry width="50" height="50" relative="1" as="geometry">
            <mxPoint x="840" y="-441.25" as="sourcePoint" />
            <mxPoint x="2210" y="-441.09000000000003" as="targetPoint" />
          </mxGeometry>
        </mxCell>
        <mxCell id="yf8Vn-Xlz2NRk6f_VjwH-69" value="" style="endArrow=classic;html=1;rounded=0;fillColor=none;strokeColor=default;strokeWidth=1;entryX=-0.002;entryY=0.3;entryDx=0;entryDy=0;entryPerimeter=0;exitX=1;exitY=0.333;exitDx=0;exitDy=0;exitPerimeter=0;" edge="1" parent="ROXL5avVqIjRntkrCK3H-1">
          <mxGeometry width="50" height="50" relative="1" as="geometry">
            <mxPoint x="840" y="-401.25" as="sourcePoint" />
            <mxPoint x="2210" y="-401.09000000000003" as="targetPoint" />
          </mxGeometry>
        </mxCell>
      </root>
    </mxGraphModel>
  </diagram>
</mxfile>
